<?xml version="1.0" standalone="no"?>
<!DOCTYPE svg PUBLIC "-//W3C//DTD SVG 20010904//EN"
 "http://www.w3.org/TR/2001/REC-SVG-20010904/DTD/svg10.dtd">
<svg version="1.0" xmlns="http://www.w3.org/2000/svg"
 width="510.000000pt" height="510.000000pt" viewBox="0 0 510.000000 510.000000"
 preserveAspectRatio="xMidYMid meet">
<metadata>
Created by potrace 1.14, written by Peter Selinger 2001-2017
</metadata>
<g transform="translate(0.000000,510.000000) scale(0.100000,-0.100000)"
fill="#000000" stroke="none">
<path d="M634 5075 c-63 -31 -264 -221 -333 -314 -66 -89 -146 -258 -171 -363
-15 -63 -20 -118 -20 -226 0 -128 3 -152 26 -220 35 -105 82 -178 163 -255 95
-89 188 -142 334 -189 297 -95 627 -157 843 -158 77 0 117 -17 97 -41 -7 -9
-40 -15 -95 -17 -45 -2 -121 -7 -168 -12 -115 -13 -371 -12 -465 1 -99 13
-198 44 -246 76 -59 39 -74 30 -75 -47 0 -36 -4 -85 -9 -109 l-8 -45 109 -105
c60 -59 132 -131 159 -161 47 -53 113 -103 173 -134 15 -7 69 -16 119 -20 74
-5 99 -4 122 9 17 8 43 15 59 15 15 0 58 18 95 40 66 40 91 48 101 31 3 -5 10
-53 16 -107 6 -55 20 -144 30 -199 11 -55 27 -170 35 -256 23 -238 60 -366
194 -667 22 -48 47 -124 56 -169 9 -45 34 -128 56 -183 32 -84 39 -113 39
-173 0 -134 42 -300 105 -416 27 -48 83 -91 120 -91 9 0 26 -11 37 -25 11 -14
33 -32 50 -41 17 -9 47 -33 67 -54 51 -54 104 -67 187 -46 35 9 86 16 114 16
59 0 140 -18 140 -31 0 -5 16 -9 36 -9 19 0 33 4 30 9 -3 5 8 11 26 15 18 3
47 23 68 45 21 22 51 46 69 55 17 9 38 28 47 41 9 14 25 25 36 25 47 0 93 39
132 112 51 97 87 235 93 358 5 101 10 127 43 215 21 55 46 136 55 180 10 44
44 140 76 214 118 267 151 384 174 631 9 91 23 194 31 230 8 36 22 121 30 189
8 68 17 128 20 132 9 15 40 10 65 -10 39 -30 106 -61 134 -61 14 0 39 -7 56
-15 36 -19 197 -11 243 13 57 28 162 113 201 162 22 28 84 91 139 142 l98 92
-7 45 c-5 25 -8 75 -9 111 -1 77 -16 86 -75 47 -48 -32 -147 -63 -246 -76 -96
-14 -338 -14 -476 -1 -57 5 -134 11 -172 13 -75 4 -104 20 -75 41 11 8 67 15
145 19 252 12 546 72 856 175 145 49 313 182 380 302 63 115 82 196 81 345 -2
163 -25 265 -94 411 -65 139 -127 220 -268 354 -117 111 -205 169 -238 156
-29 -11 -12 -82 43 -179 67 -116 117 -235 150 -354 22 -81 27 -120 27 -223 1
-141 -23 -263 -54 -280 -23 -12 -225 -47 -320 -55 -196 -16 -405 -50 -603 -97
l-129 -30 -36 35 c-66 62 -112 72 -170 37 -20 -12 -50 -20 -78 -20 -47 0 -76
-10 -109 -40 -19 -18 -22 -18 -75 5 -71 31 -130 31 -268 0 -153 -35 -302 -35
-448 0 -132 31 -193 31 -264 0 -53 -23 -56 -23 -75 -5 -33 30 -62 40 -109 40
-28 0 -58 8 -78 20 -58 35 -104 25 -170 -37 l-36 -35 -129 31 c-198 47 -322
67 -643 101 -127 13 -265 39 -284 53 -44 34 -68 320 -38 447 38 154 96 294
179 433 25 42 35 71 36 104 2 59 -10 63 -79 28z m66 -8 c0 -8 -14 -34 -31 -58
-119 -171 -199 -320 -199 -371 0 -15 -5 -28 -11 -28 -5 0 -7 -4 -4 -10 3 -5
-1 -23 -10 -41 -9 -17 -14 -33 -11 -37 3 -3 1 -11 -5 -19 -8 -9 -8 -13 0 -13
7 0 7 -8 -1 -27 -6 -16 -13 -59 -15 -98 -8 -118 -3 -171 16 -167 9 2 11 -3 6
-15 -4 -10 -9 -36 -12 -58 -4 -32 1 -47 21 -75 l26 -34 -22 -10 c-20 -8 -20
-10 -5 -13 23 -6 22 -22 -5 -51 l-23 -24 23 6 c17 6 22 3 22 -11 0 -11 -5 -24
-12 -31 -9 -9 -8 -12 5 -12 10 0 22 11 28 24 8 17 17 22 32 18 16 -4 19 -2 14
11 -6 17 0 20 61 32 33 7 35 25 2 25 -10 0 -22 5 -25 10 -13 22 32 8 65 -20
19 -16 28 -28 20 -28 -67 4 -102 -3 -107 -22 -3 -13 -14 -20 -28 -20 -15 0
-26 -8 -30 -19 -3 -11 -12 -24 -20 -31 -11 -9 -18 -3 -36 32 -50 97 -61 154
-66 333 -6 203 11 302 76 466 46 113 145 270 210 334 54 52 52 64 -4 24 -25
-18 -45 -38 -45 -45 0 -8 -6 -11 -14 -8 -9 4 -18 -6 -26 -30 -13 -40 -39 -59
-66 -49 -13 5 -15 3 -8 -8 10 -17 6 -59 -9 -77 -6 -7 -24 -12 -41 -12 -48 3
-53 1 -26 -13 17 -8 26 -22 28 -43 2 -25 -3 -36 -32 -58 -29 -21 -40 -25 -55
-16 -11 5 -27 10 -36 10 -13 0 -14 -4 -5 -20 7 -12 16 -17 27 -13 23 9 43 -24
42 -66 l-2 -36 -6 40 c-5 36 -9 40 -36 40 -16 0 -33 4 -37 10 -5 6 -12 5 -19
-2 -10 -10 -8 -14 7 -18 10 -4 27 -11 37 -16 11 -6 17 -6 17 2 0 5 5 7 10 4
15 -9 12 -38 -5 -61 -12 -15 -16 -16 -24 -5 -5 7 -13 11 -19 7 -6 -3 -13 -2
-17 4 -8 14 -45 13 -45 -1 0 -6 6 -9 14 -6 8 3 22 -3 32 -14 12 -13 27 -19 42
-16 20 4 21 3 9 -12 -8 -9 -12 -23 -10 -31 4 -13 3 -13 -5 -1 -9 12 -15 12
-42 1 -26 -11 -33 -11 -40 0 -4 7 -13 9 -20 5 -19 -12 6 -29 45 -31 23 0 36 4
39 15 3 9 4 -6 2 -32 -4 -52 2 -53 21 -4 11 32 11 32 12 5 1 -15 -10 -39 -23
-55 -21 -25 -26 -26 -50 -15 -26 12 -76 7 -76 -7 0 -3 9 -12 21 -19 16 -10 24
-11 35 -1 8 6 17 9 20 7 5 -6 -44 -48 -56 -48 -4 0 -7 6 -6 13 0 6 -3 13 -9
15 -5 1 -10 -6 -10 -15 0 -15 9 -18 45 -17 39 0 45 3 42 20 -3 19 -2 19 13 0
8 -11 15 -26 15 -32 0 -26 -24 -64 -39 -63 -10 0 -12 2 -3 6 25 10 10 20 -33
21 -47 0 -69 -15 -56 -37 11 -17 34 -4 27 15 -8 20 8 17 29 -6 10 -11 26 -20
36 -20 37 0 65 100 37 128 -7 7 -8 12 -2 12 12 0 34 -43 34 -66 0 -24 -43 -93
-62 -100 -10 -3 -25 -1 -35 4 -12 5 -30 2 -53 -10 -24 -12 -29 -18 -16 -18 11
0 27 -7 37 -16 16 -14 18 -14 24 5 3 12 13 21 22 21 14 0 14 -2 1 -17 -8 -10
-18 -26 -21 -35 -4 -10 -13 -18 -21 -18 -10 0 -13 6 -9 16 4 12 1 15 -13 12
-24 -4 -25 -27 -2 -41 13 -9 21 -7 36 6 10 9 26 17 36 17 13 0 16 5 11 23 -6
22 -6 22 15 -2 15 -18 20 -35 18 -64 -2 -22 -8 -42 -15 -44 -7 -3 -9 3 -6 16
5 21 -11 29 -22 11 -3 -6 -16 -8 -29 -4 -24 6 -52 -18 -41 -36 11 -18 27 -11
20 11 l-7 20 41 -21 c46 -23 53 -35 17 -28 -13 3 -34 -3 -46 -12 l-23 -17 28
-7 c19 -5 33 -2 44 9 27 24 54 18 90 -19 29 -30 32 -39 29 -77 -3 -48 -12 -59
-46 -59 -18 0 -23 -5 -20 -22 2 -15 9 -22 21 -22 9 1 17 -4 17 -12 0 -8 9 -14
21 -14 15 0 19 5 15 15 -10 26 31 17 53 -11 22 -27 29 -60 11 -49 -17 11 -32
-5 -19 -21 18 -22 39 -17 39 11 0 59 -55 113 -103 100 -21 -6 -21 -6 -3 9 17
14 23 13 58 -6 47 -27 84 -98 67 -129 -10 -20 0 -26 17 -10 5 5 32 7 61 3 50
-7 54 -10 77 -52 l24 -45 60 0 c35 0 66 -5 73 -12 7 -7 18 -13 25 -13 6 0 17
-7 25 -16 10 -12 23 -14 57 -9 35 5 48 3 64 -12 14 -13 36 -18 73 -18 36 0 59
-5 72 -18 15 -13 30 -16 65 -11 33 5 52 2 69 -9 16 -11 29 -13 39 -7 21 13 53
12 73 -3 15 -10 7 -12 -45 -11 -35 0 -76 6 -92 13 -16 6 -42 9 -58 6 -18 -4
-42 -1 -65 10 -20 10 -48 15 -67 12 -19 -3 -45 3 -68 14 -21 11 -56 19 -79 19
-26 0 -52 8 -72 22 -22 16 -47 23 -86 24 -62 2 -164 37 -251 86 -73 41 -92 56
-172 135 -191 189 -224 460 -97 792 68 179 241 386 428 511 50 33 61 36 61 17z
m3761 -17 c193 -133 354 -324 427 -508 97 -246 101 -475 11 -654 -87 -172
-358 -357 -530 -362 -39 -1 -64 -8 -86 -24 -20 -14 -46 -22 -72 -22 -23 0 -58
-8 -79 -19 -23 -11 -49 -17 -68 -14 -19 3 -47 -2 -68 -12 -24 -12 -47 -15 -71
-11 -21 4 -43 2 -57 -6 -31 -17 -150 -18 -136 -1 12 15 57 17 78 3 10 -6 23
-4 39 7 17 11 36 14 69 9 35 -5 50 -2 65 11 13 13 36 18 72 18 37 0 59 5 73
18 16 15 29 17 64 12 34 -5 47 -3 57 9 8 9 19 16 26 16 7 0 18 7 25 15 10 12
25 14 71 9 l57 -6 26 49 c24 49 26 50 78 56 32 3 58 0 67 -7 11 -9 13 -7 7 10
-11 36 28 107 73 132 l41 23 24 -26 c27 -29 46 -26 46 6 0 12 -7 19 -19 19
-42 0 -51 11 -51 58 0 38 5 52 32 79 36 37 72 43 90 14 9 -16 16 -17 35 -8 13
5 23 14 23 18 0 11 -32 22 -57 20 -34 -3 -28 6 18 29 l41 21 -7 -20 c-7 -22 9
-29 20 -11 11 17 -16 42 -39 36 -11 -3 -26 0 -33 6 -10 8 -17 8 -26 -1 -9 -9
-9 -14 3 -21 9 -6 10 -10 3 -10 -33 0 -35 83 -3 114 l22 21 -7 -22 c-5 -19 -2
-23 14 -23 22 0 29 -16 9 -22 -8 -3 -9 -11 -3 -24 8 -18 9 -18 12 4 4 17 9 21
27 16 24 -6 52 18 41 36 -10 16 -38 12 -31 -5 3 -9 0 -15 -10 -15 -8 0 -17 8
-21 18 -3 9 -13 25 -21 35 -13 15 -13 17 1 17 9 0 19 -9 22 -21 6 -19 8 -19
24 -5 10 9 24 16 32 16 8 0 1 8 -16 19 -21 13 -35 16 -48 9 -10 -5 -25 -7 -35
-4 -19 7 -62 76 -62 100 0 23 22 66 34 66 6 0 5 -5 -2 -12 -29 -29 1 -128 38
-128 11 0 25 9 32 20 15 24 36 26 34 4 0 -9 5 -19 12 -22 10 -3 13 3 10 19 -3
21 -9 24 -51 25 -38 2 -47 -1 -43 -12 10 -25 -10 -15 -22 11 -16 34 -15 47 3
71 15 19 16 19 13 0 -3 -17 3 -20 42 -20 36 -1 45 2 45 17 0 9 -4 16 -10 15
-5 -2 -9 -9 -9 -15 1 -7 -2 -13 -6 -13 -12 0 -61 42 -56 48 3 2 12 -1 20 -7
11 -10 19 -9 35 1 12 7 21 16 21 19 0 14 -50 19 -76 7 -24 -11 -29 -10 -50 15
-13 16 -24 40 -23 55 0 23 3 20 16 -16 19 -53 39 -63 64 -31 15 19 21 21 28
10 12 -19 42 -6 34 15 -4 12 -14 14 -36 10 -16 -3 -36 -6 -44 -6 -9 0 -13 -6
-9 -15 3 -8 1 -15 -3 -15 -13 0 -21 27 -20 63 1 18 3 24 6 14 3 -12 10 -16 24
-12 14 5 17 3 13 -9 -9 -23 3 -20 32 8 19 17 23 26 14 31 -7 4 -16 2 -20 -5
-7 -11 -14 -11 -40 0 -27 11 -33 11 -42 -1 -8 -12 -9 -12 -5 1 2 8 -2 22 -10
31 -12 15 -11 16 9 12 15 -3 30 3 42 16 10 11 24 17 32 14 8 -3 14 0 14 6 0 6
-11 11 -25 11 -14 0 -25 -5 -25 -11 0 -5 -5 -7 -11 -3 -6 3 -15 0 -20 -7 -8
-11 -12 -10 -24 5 -17 22 -20 66 -5 66 6 0 10 -5 10 -10 0 -7 6 -7 18 -1 9 5
26 12 36 16 15 4 17 8 7 18 -7 7 -14 8 -19 2 -4 -6 -20 -10 -37 -10 -27 0 -31
-4 -36 -40 l-6 -40 -2 36 c-1 42 19 75 42 66 11 -4 20 1 27 13 9 16 8 20 -5
20 -9 0 -25 -5 -36 -10 -15 -9 -26 -5 -55 16 -29 22 -34 33 -32 58 2 20 11 34
25 42 30 14 19 24 -21 17 -20 -3 -36 0 -43 9 -15 18 -19 60 -9 77 7 11 4 13
-13 8 -27 -7 -57 20 -67 58 -4 17 -11 24 -20 21 -8 -3 -14 0 -14 8 0 7 -20 27
-45 45 -56 40 -58 28 -4 -24 56 -55 161 -215 199 -305 62 -147 81 -240 87
-416 6 -186 -9 -287 -58 -394 l-31 -65 -27 33 c-15 17 -34 32 -43 32 -9 0 -18
9 -21 20 -5 19 -39 26 -107 22 -9 0 -2 12 18 29 30 27 81 41 67 19 -3 -5 -15
-10 -25 -10 -33 0 -31 -18 2 -25 61 -12 67 -15 61 -32 -5 -13 -2 -15 14 -11
15 4 24 -1 32 -18 6 -13 18 -24 28 -24 13 0 14 3 5 12 -7 7 -12 20 -12 31 0
14 5 17 23 11 l22 -6 -22 24 c-28 29 -29 45 -5 51 14 3 14 5 -6 13 l-22 10 25
34 c27 35 29 69 10 128 -6 17 -4 22 6 20 12 -3 17 15 20 72 2 42 -10 168 -18
190 -5 14 -8 36 -7 50 1 14 -5 38 -13 53 -7 15 -11 32 -8 37 3 6 1 10 -4 10
-6 0 -11 13 -11 28 0 49 -110 254 -186 347 -33 41 -54 95 -37 95 5 0 29 -14
54 -30z m144 -370 c9 -28 15 -55 13 -61 -2 -6 -13 19 -24 55 -23 75 -14 81 11
6z m-4104 -15 c-11 -33 -20 -53 -20 -44 -1 18 29 112 35 107 2 -2 -5 -31 -15
-63z m-24 -87 c-3 -8 -6 -5 -6 6 -1 11 2 17 5 13 3 -3 4 -12 1 -19z m-26 -145
c-9 -16 -10 -16 -11 -1 0 9 3 25 7 35 7 16 8 17 11 1 2 -10 -1 -25 -7 -35z
m4209 4 c0 -18 -2 -19 -10 -7 -13 20 -13 43 0 35 6 -3 10 -16 10 -28z m-4210
-124 c-1 -80 -2 -86 -15 -69 -8 11 -11 22 -6 25 4 3 7 34 6 69 -1 34 2 62 7
62 4 0 8 -39 8 -87z m4215 25 c-1 -35 2 -66 6 -69 5 -3 2 -14 -6 -25 -13 -17
-14 -11 -15 69 0 48 4 87 8 87 5 0 8 -28 7 -62z m-4205 -195 c0 -19 -3 -24
-10 -17 -6 6 -8 18 -4 27 9 24 14 21 14 -10z m4191 -16 c-8 -8 -11 -3 -11 19
1 25 2 27 11 11 8 -14 8 -22 0 -30z m-4337 -13 c24 -44 25 -47 10 -85 -9 -21
-20 -39 -25 -39 -5 0 -2 11 7 25 20 30 13 81 -17 119 -11 14 -16 26 -11 26 6
0 22 -21 36 -46z m4516 43 c0 -2 -10 -12 -21 -23 -22 -19 -22 -19 -10 4 10 18
31 31 31 19z m-46 -82 c-4 -25 -1 -43 10 -60 9 -14 12 -25 7 -25 -5 0 -16 18
-25 40 -12 30 -13 46 -6 60 16 30 22 24 14 -15z m-141 -13 c-11 -15 -30 -28
-42 -30 l-22 -3 23 23 c13 14 26 23 31 21 4 -3 10 3 13 12 4 9 9 13 12 10 3
-3 -3 -18 -15 -33z m-4141 -30 c-19 -5 -56 30 -41 38 6 4 21 -2 32 -14 16 -15
18 -22 9 -24z m220 -46 c-13 -7 -19 -15 -16 -19 18 -18 -18 -4 -41 16 l-26 22
52 -4 c48 -3 51 -4 31 -15z m3715 -1 c-28 -25 -54 -34 -42 -16 3 5 -5 13 -17
18 -22 7 -9 11 77 21 6 1 -3 -10 -18 -23z m-3914 -2 c-5 -12 -2 -15 10 -10 9
3 17 2 17 -3 0 -11 -33 -14 -43 -3 -4 3 -2 12 4 20 15 18 20 16 12 -4z m4071
-14 c-3 -5 -15 -8 -27 -8 -18 1 -19 2 -4 6 12 3 16 10 13 20 -5 13 -4 14 9 3
8 -7 12 -16 9 -21z m-3600 -9 c245 -36 399 -68 516 -108 127 -44 140 -51 140
-80 l0 -25 -22 28 c-19 24 -26 27 -65 22 -38 -4 -43 -2 -43 16 0 19 -1 20 -20
2 -17 -16 -20 -16 -20 -2 0 21 -47 57 -74 57 -19 -1 -19 -2 6 -21 18 -13 33
-39 43 -72 22 -74 18 -79 -16 -17 -16 30 -40 65 -52 79 -46 49 -141 75 -187
51 -15 -8 -18 -7 -15 3 6 15 -117 41 -152 31 -17 -5 -23 -2 -23 10 0 11 -9 16
-27 16 -26 0 -26 0 -7 -22 17 -19 16 -19 -14 3 -30 21 -44 24 -120 22 -47 0
-79 2 -72 7 9 6 8 10 -6 19 -18 10 -18 10 1 11 11 0 114 -14 229 -30z m3337
16 c-23 -13 -23 -14 -5 -18 10 -3 -17 -5 -61 -6 -164 0 -175 -1 -175 -18 0
-12 -6 -15 -22 -10 -36 10 -159 -16 -153 -31 3 -10 0 -11 -15 -3 -46 24 -141
-2 -187 -51 -12 -14 -36 -49 -52 -79 -34 -62 -38 -57 -16 17 10 33 25 59 43
72 25 19 25 20 6 21 -27 0 -74 -36 -74 -57 0 -14 -3 -14 -20 2 -19 18 -20 17
-20 -2 0 -18 -5 -20 -43 -16 -39 5 -46 2 -65 -22 l-22 -28 0 25 c0 21 9 29 48
46 79 33 202 70 307 92 111 23 473 78 520 79 l30 0 -24 -13z m-3511 -52 c0
-13 3 -14 14 -5 10 9 17 7 27 -5 13 -16 11 -16 -21 -10 -19 4 -60 10 -90 14
l-55 6 55 7 c30 3 58 6 63 7 4 1 7 -5 7 -14z m125 -4 c17 -11 52 -36 79 -55
57 -41 97 -45 153 -14 l38 21 -27 -22 c-16 -12 -28 -30 -28 -41 0 -30 27 -21
48 16 11 19 11 19 12 -3 0 -34 40 -68 124 -106 40 -19 79 -42 85 -52 10 -18
10 -18 11 -1 0 27 -19 57 -35 57 -10 0 -15 11 -15 33 0 41 -20 71 -59 86 -22
10 -34 10 -50 1 -20 -10 -20 -13 -6 -40 18 -35 53 -56 67 -42 14 14 -8 51 -35
62 -18 7 -19 9 -4 9 22 1 67 -42 67 -64 0 -37 -62 -31 -103 11 -32 31 -35 69
-8 84 60 31 113 -15 187 -166 33 -66 77 -138 103 -167 40 -45 42 -48 14 -29
-34 24 -103 100 -103 114 0 4 -7 8 -14 8 -8 0 -21 12 -28 27 -14 29 -22 34
-92 58 -26 10 -63 30 -81 46 -21 19 -44 29 -64 29 -18 0 -34 6 -37 14 -3 8
-20 18 -37 21 -18 4 -51 18 -73 31 -23 13 -44 21 -46 18 -3 -2 -20 3 -39 11
l-34 16 30 -5 30 -4 -29 25 c-17 14 -37 23 -47 20 -11 -3 -22 -1 -25 4 -10 17
41 9 71 -11z m3281 11 c-3 -5 -14 -7 -25 -4 -10 3 -30 -6 -47 -20 l-29 -25 30
4 30 5 -34 -16 c-19 -8 -36 -13 -39 -11 -2 3 -23 -5 -46 -18 -22 -13 -55 -27
-73 -31 -17 -3 -34 -13 -37 -21 -3 -8 -19 -14 -37 -14 -20 0 -43 -10 -64 -29
-28 -24 -81 -49 -143 -67 -7 -2 -20 -17 -30 -34 -9 -16 -21 -30 -27 -31 -5 0
-26 -22 -47 -48 -20 -27 -51 -59 -70 -72 -30 -21 -29 -19 13 28 39 44 68 94
132 233 20 43 94 110 121 110 29 0 56 -24 56 -49 0 -23 -46 -70 -77 -77 -29
-8 -53 1 -53 19 0 25 41 67 63 66 l22 0 -22 -9 c-27 -11 -49 -48 -35 -62 14
-14 49 7 67 42 14 27 14 30 -6 40 -44 24 -109 -26 -109 -85 0 -22 -6 -33 -22
-40 -15 -7 -24 -20 -26 -40 -2 -26 -1 -28 9 -11 6 10 45 33 85 52 84 38 124
72 124 106 1 22 1 22 12 3 6 -11 16 -23 22 -27 36 -25 35 19 -1 50 l-28 24 38
-21 c67 -37 123 -22 207 54 14 12 32 25 40 28 25 9 62 8 56 -2z m132 -2 l47
-2 -55 -8 c-30 -4 -71 -11 -90 -15 -32 -6 -34 -5 -21 10 10 12 17 14 27 5 11
-9 14 -8 14 6 0 12 5 15 16 11 9 -3 37 -7 62 -7z m-971 -31 c-3 -8 -6 -5 -6 6
-1 11 2 17 5 13 3 -3 4 -12 1 -19z m-2293 3 c3 -4 -6 -6 -19 -3 -30 5 -36 -23
-6 -33 23 -7 51 3 51 20 0 10 5 11 24 2 l25 -12 -22 -12 c-44 -25 -117 -4
-117 33 0 15 55 20 64 5z m2972 -3 c10 -16 -33 -48 -65 -48 -14 1 -36 6 -48
13 l-22 12 25 12 c19 9 24 8 24 -2 0 -17 31 -28 54 -19 27 10 20 37 -9 32 -13
-3 -22 -1 -19 3 8 13 52 11 60 -3z m-3159 -4 c-3 -3 -12 -4 -19 -1 -8 3 -5 6
6 6 11 1 17 -2 13 -5z m884 -11 c13 -16 12 -17 -3 -4 -10 7 -18 15 -18 17 0 8
8 3 21 -13z m1539 13 c0 -2 -8 -10 -17 -17 -16 -13 -17 -12 -4 4 13 16 21 21
21 13z m887 -2 c-3 -3 -12 -4 -19 -1 -8 3 -5 6 6 6 11 1 17 -2 13 -5z m-3385
-28 c213 -54 535 -227 638 -342 16 -19 10 -15 -18 9 -23 21 -56 40 -72 44 -17
3 -30 11 -30 18 0 18 -98 76 -152 88 -36 9 -48 17 -53 34 -6 27 -20 30 -33 6
-9 -15 -13 -14 -41 10 -49 40 -88 43 -185 13 -46 -14 -100 -26 -120 -26 -26 0
-34 -4 -30 -14 7 -18 -27 -26 -72 -16 -42 10 -94 55 -94 83 0 25 18 57 32 57
6 0 3 -9 -7 -20 -18 -20 -18 -21 1 -47 22 -30 66 -45 100 -37 28 7 58 39 49
53 -15 26 16 8 39 -21 21 -28 26 -30 32 -15 3 9 0 24 -7 33 -8 10 0 8 24 -6
39 -23 44 -21 26 12 -10 19 -9 20 15 14 14 -3 47 -9 74 -12 43 -5 46 -4 28 10
-31 25 -203 78 -271 84 -51 4 -72 1 -108 -17 -24 -12 -49 -31 -55 -44 -7 -14
-11 -17 -11 -7 -1 22 27 60 53 70 41 17 152 10 248 -14z m3714 -9 c13 -15 24
-35 24 -43 0 -10 -9 -5 -25 15 -34 39 -84 55 -156 48 -67 -6 -247 -62 -269
-84 -13 -14 -10 -15 32 -9 27 3 60 9 74 12 24 6 25 5 15 -14 -18 -33 -13 -35
26 -12 24 14 32 16 24 6 -7 -9 -10 -24 -7 -33 6 -15 11 -12 33 16 25 32 27 33
34 13 4 -11 19 -28 33 -37 35 -23 92 -9 120 28 l21 29 -25 20 c-28 23 -77 18
-97 -9 -16 -21 0 -43 32 -43 23 0 49 21 40 34 -3 3 0 2 6 -3 17 -14 2 -29 -38
-40 -36 -10 -73 -1 -73 19 0 5 11 21 24 37 19 22 32 28 66 28 70 0 94 -59 43
-107 -46 -43 -153 -60 -139 -22 4 10 -4 14 -32 14 -20 0 -72 11 -115 25 -43
14 -90 25 -105 25 -27 0 -90 -32 -105 -54 -5 -7 -11 -6 -18 7 -14 23 -24 22
-37 -7 -7 -16 -22 -26 -48 -31 -46 -8 -162 -76 -157 -91 2 -6 -10 -14 -26 -17
-17 -4 -48 -21 -69 -39 -22 -18 -15 -10 15 18 119 111 403 259 597 310 68 18
112 23 174 21 78 -2 85 -4 108 -30z m-2352 -104 c5 -4 10 -3 12 2 2 6 14 26
27 45 l22 35 3 -37 c3 -38 14 -48 28 -27 8 13 83 48 103 49 8 0 -7 -14 -35
-31 -27 -17 -61 -45 -76 -62 l-27 -32 -1 38 c0 50 -21 45 -36 -9 -11 -39 -12
-39 -22 -14 -6 14 -13 33 -16 43 -8 25 -26 11 -27 -21 0 -15 -4 -36 -8 -47 -7
-18 -9 -17 -25 13 -9 17 -19 32 -22 32 -3 0 -3 -33 1 -72 l7 -73 -22 20 c-22
20 -50 66 -50 82 0 4 11 -10 25 -32 l24 -40 1 100 c1 100 3 101 30 28 17 -45
26 -41 33 11 4 24 12 56 19 72 l13 28 5 -46 c3 -26 10 -51 14 -55z m26 61 c0
-3 -7 -1 -15 6 -8 7 -15 17 -15 22 0 5 7 3 15 -6 8 -8 15 -18 15 -22z m736
-56 c8 -56 17 -60 34 -15 27 74 30 72 28 -15 -1 -48 1 -90 4 -94 4 -3 16 9 27
27 12 19 21 30 21 26 0 -16 -28 -62 -50 -82 l-22 -20 7 73 c4 39 4 72 1 72 -3
0 -12 -13 -21 -30 -22 -43 -35 -37 -35 14 0 47 -16 71 -26 39 -3 -10 -10 -29
-16 -43 -10 -25 -10 -25 -24 15 -7 22 -14 41 -14 43 0 1 -4 2 -10 2 -5 0 -10
-17 -10 -37 l-1 -38 -27 31 c-15 18 -49 46 -77 64 -43 28 -46 31 -20 26 17 -4
49 -20 72 -36 l42 -29 3 42 3 42 22 -35 c13 -19 25 -39 27 -45 8 -19 26 20 26
60 1 40 1 40 15 15 8 -14 17 -46 21 -72z m-2248 46 c27 -31 28 -40 3 -53 -12
-7 -30 -7 -54 0 -42 11 -55 26 -37 42 9 9 11 9 7 1 -10 -17 18 -36 45 -32 17
2 23 10 23 28 0 20 -8 27 -40 37 -40 13 -40 13 -5 8 20 -3 44 -16 58 -31z
m1062 -39 c0 -5 -10 5 -21 23 -12 17 -25 32 -30 32 -5 0 -9 6 -9 13 1 6 14 -4
30 -23 17 -19 30 -39 30 -45z m190 41 c-5 -15 -15 -24 -20 -21 -6 4 -19 1 -28
-6 -9 -7 -2 3 17 24 39 41 46 42 31 3z m1215 -8 c22 -23 30 -34 18 -24 -12 10
-26 15 -32 12 -10 -7 -31 23 -31 43 0 16 3 14 45 -31z m-1355 22 c0 -5 -10
-10 -22 -9 -22 0 -22 1 -3 9 11 5 21 9 23 9 1 1 2 -3 2 -9z m247 -12 c-3 -8
-6 -5 -6 6 -1 11 2 17 5 13 3 -3 4 -12 1 -19z m833 18 c0 -3 -4 -8 -10 -11 -5
-3 -10 -1 -10 4 0 6 5 11 10 11 6 0 10 -2 10 -4z m137 -28 c-3 -7 -5 -2 -5 12
0 14 2 19 5 13 2 -7 2 -19 0 -25z m273 16 c0 -2 -7 -4 -15 -4 -8 0 -15 4 -15
10 0 5 7 7 15 4 8 -4 15 -8 15 -10z m-1180 -26 c0 -5 -4 -8 -10 -8 -5 0 -10
10 -10 23 0 18 2 19 10 7 5 -8 10 -18 10 -22z m860 18 c0 -8 -5 -18 -12 -22
-7 -5 -9 -2 -5 9 3 9 1 18 -6 21 -7 2 -4 5 6 5 9 1 17 -5 17 -13z m373 -1 c-3
-9 -8 -14 -10 -11 -3 3 -2 9 2 15 9 16 15 13 8 -4z m-1656 -32 c-3 -10 -5 -4
-5 12 0 17 2 24 5 18 2 -7 2 -21 0 -30z m1690 0 c-3 -10 -5 -4 -5 12 0 17 2
24 5 18 2 -7 2 -21 0 -30z m-702 -8 c32 -15 57 -36 69 -57 19 -32 18 -31 -22
9 -51 52 -88 62 -213 59 -105 -3 -146 -19 -189 -74 l-21 -27 18 34 c29 55 94
79 211 79 82 0 105 -3 147 -23z m-1085 -10 c10 -26 0 -68 -20 -80 -17 -11 -40
15 -39 44 1 20 2 22 6 6 7 -30 21 -41 34 -28 17 17 2 63 -19 63 -45 0 -58 -66
-19 -93 19 -14 20 -16 4 -16 -13 -1 -17 -7 -15 -23 2 -13 9 -22 16 -20 6 1 12
-7 12 -17 0 -11 11 -33 25 -48 l24 -28 -5 50 c-4 38 -1 61 15 95 l21 45 -1
-55 c-1 -80 -12 -143 -27 -148 -7 -2 -30 14 -51 35 -90 90 -86 241 7 243 15 0
26 -8 32 -25z m1954 12 c43 -32 34 -144 -18 -212 -27 -34 -71 -64 -81 -54 -2
3 -7 50 -10 104 l-6 100 21 -45 c17 -35 21 -56 16 -95 l-5 -50 24 28 c14 15
25 37 25 48 0 10 6 18 12 17 7 -2 14 7 16 20 2 16 -2 22 -15 23 -16 0 -15 2 5
16 38 27 25 93 -20 93 -21 0 -36 -46 -19 -63 13 -13 27 -2 34 28 5 20 5 19 6
-1 0 -11 -5 -29 -13 -39 -12 -16 -16 -17 -30 -6 -22 19 -28 44 -17 75 12 29
45 35 75 13z m-1594 -10 c0 -8 -7 -14 -15 -14 -25 0 -17 17 13 26 1 1 2 -5 2
-12z m-1416 -32 l17 -30 -20 24 c-12 13 -21 28 -21 34 0 12 0 11 24 -28z
m1501 15 c-1 -11 -5 -23 -10 -27 -4 -5 -5 -3 -1 4 3 6 1 15 -5 19 -8 4 -7 9 2
15 8 5 14 9 15 9 0 0 0 -9 -1 -20z m1005 -5 c-5 -6 -8 -15 -5 -18 3 -4 2 -5
-2 -2 -13 10 -10 43 4 38 9 -4 10 -9 3 -18z m1510 16 c0 -5 -9 -19 -20 -32
l-20 -24 17 32 c19 34 23 39 23 24z m-2090 -26 c0 -18 -5 -25 -19 -25 -11 0
-23 5 -26 10 -11 18 3 40 25 40 15 0 20 -7 20 -25z m185 0 c0 -13 -8 -21 -22
-23 -19 -3 -23 1 -23 23 0 22 4 26 23 23 14 -2 22 -10 22 -23z m483 0 c-3 -3
-9 2 -12 12 -6 14 -5 15 5 6 7 -7 10 -15 7 -18z m-1230 -7 c-8 -12 -20 -24
-27 -26 -7 -2 -3 7 10 22 28 32 37 34 17 4z m1302 -32 c0 -5 -11 1 -25 14 -14
13 -25 27 -25 32 0 4 11 -2 25 -14 14 -12 25 -26 25 -32z m-2189 28 c17 -8 43
-36 60 -62 33 -51 35 -62 15 -62 -7 0 -16 14 -20 31 -9 47 -59 91 -98 87 -45
-4 -52 -46 -12 -77 47 -37 97 -21 62 19 -11 12 -10 12 5 1 9 -7 17 -24 17 -37
0 -20 -5 -24 -29 -24 -40 0 -91 49 -91 87 0 52 35 67 91 37z m3117 4 c15 -15
16 -53 2 -79 -12 -22 -61 -49 -90 -49 -26 0 -28 42 -2 61 14 11 15 11 5 -1
-36 -40 14 -56 61 -19 40 31 33 73 -12 77 -39 4 -89 -40 -98 -87 -4 -17 -13
-31 -20 -31 -19 0 -18 7 12 57 39 67 110 103 142 71z m-2427 -21 c-10 -9 -11
-8 -5 6 3 10 9 15 12 12 3 -3 0 -11 -7 -18z m1663 7 c3 -8 2 -12 -4 -9 -6 3
-10 10 -10 16 0 14 7 11 14 -7z m-1394 -8 c0 -8 -4 -25 -10 -38 -13 -31 -90
-116 -90 -99 0 7 16 29 35 48 19 19 35 39 35 44 0 19 -20 7 -47 -27 -15 -21
-29 -31 -31 -24 -4 12 85 110 100 110 4 0 8 -6 8 -14z m420 4 c0 -5 -4 -10
-10 -10 -5 0 -10 5 -10 10 0 6 5 10 10 10 6 0 10 -4 10 -10z m314 -19 c-2 -3
-12 3 -22 13 -16 17 -16 18 5 5 12 -7 20 -15 17 -18z m450 -20 c27 -27 46 -55
44 -61 -2 -7 -16 3 -31 24 -28 36 -47 46 -47 25 0 -6 13 -21 29 -35 23 -19 48
-64 36 -64 -1 0 -23 25 -49 56 -41 50 -61 104 -38 104 4 0 29 -22 56 -49z
m-2331 -1 c-18 -46 -7 -70 32 -70 21 0 22 4 18 44 -6 52 12 71 21 22 8 -42 69
-106 101 -106 13 0 35 4 48 9 17 7 33 5 52 -5 35 -18 39 -18 31 2 -4 10 5 6
25 -10 34 -29 45 -31 83 -16 21 7 26 6 26 -5 0 -8 6 -12 14 -9 8 3 28 -2 45
-10 40 -21 60 -20 69 4 7 19 9 18 34 -10 l26 -30 -41 0 c-159 0 -488 55 -621
103 -55 20 -196 93 -196 101 0 2 24 -3 53 -11 28 -8 64 -12 80 -9 19 4 27 1
27 -9 0 -22 7 -19 46 20 19 19 36 35 39 35 2 0 -4 -18 -12 -40z m3458 -11 c12
-23 29 -25 29 -4 0 10 8 13 28 9 15 -3 50 1 79 9 29 8 50 11 48 7 -10 -17
-198 -101 -265 -119 -129 -35 -340 -69 -469 -77 l-125 -7 41 42 c23 22 45 41
50 41 4 0 0 -7 -11 -15 -21 -16 -15 -45 9 -45 9 0 30 7 46 16 17 8 37 13 45
10 8 -3 14 1 14 9 0 11 5 12 26 5 38 -15 49 -13 83 16 20 16 29 20 25 10 -5
-14 -3 -14 28 -2 22 10 39 11 49 5 23 -14 72 -10 96 9 27 22 63 81 63 105 0
11 5 15 11 11 7 -4 9 -24 6 -50 -4 -41 -3 -44 19 -44 35 0 48 32 30 75 l-15
35 25 -17 c14 -9 29 -24 35 -34z m-1100 24 c13 -16 12 -17 -3 -4 -17 13 -22
21 -14 21 2 0 10 -8 17 -17z m-2211 3 c0 -3 -4 -8 -10 -11 -5 -3 -10 -1 -10 4
0 6 5 11 10 11 6 0 10 -2 10 -4z m1525 -51 c12 -41 21 -55 35 -55 14 0 23 14
35 55 8 30 20 55 25 55 9 0 -2 -35 -35 -114 -13 -30 11 -15 37 23 13 19 29 36
36 39 23 7 12 -20 -24 -60 -45 -50 -36 -61 15 -20 34 28 40 29 46 14 4 -11 0
-21 -11 -27 -9 -5 -26 -18 -38 -28 l-21 -18 25 4 c14 2 33 8 44 12 14 6 17 4
14 -11 -2 -14 -14 -20 -48 -24 -48 -5 -45 -13 8 -25 18 -4 32 -13 32 -21 0
-13 -3 -13 -22 0 -12 9 -32 16 -43 16 -16 0 -13 -7 20 -36 41 -36 32 -36 -17
0 -40 28 -44 14 -9 -27 17 -19 31 -41 31 -48 0 -8 -18 6 -40 31 l-40 45 25
-68 c14 -38 21 -66 15 -62 -5 3 -10 11 -10 16 0 5 -7 26 -15 47 -13 29 -18 34
-25 22 -9 -13 -11 -13 -20 0 -7 12 -12 7 -25 -22 -8 -21 -15 -42 -15 -47 0 -5
-5 -13 -10 -16 -6 -4 1 23 14 59 14 36 22 66 18 66 -4 0 -20 -19 -36 -42 -17
-23 -32 -36 -34 -30 -2 7 10 28 27 49 17 20 28 39 26 41 -3 3 -23 -7 -44 -21
-22 -15 -38 -21 -35 -13 3 7 16 19 30 26 29 16 32 35 4 26 -11 -3 -30 -9 -42
-13 -14 -4 -19 -3 -14 5 4 6 22 14 41 18 50 9 53 24 5 24 -27 0 -43 5 -47 15
-8 23 2 28 27 15 11 -6 29 -10 38 -7 13 2 7 9 -20 26 -21 13 -38 29 -38 37 0
21 19 17 52 -11 56 -47 59 -18 4 34 -26 25 -34 51 -16 51 5 0 22 -18 36 -40
15 -22 31 -40 35 -40 13 0 11 6 -10 48 -26 53 -34 82 -22 82 6 0 18 -25 26
-55z m1615 45 c0 -5 -2 -10 -4 -10 -3 0 -8 5 -11 10 -3 6 -1 10 4 10 6 0 11
-4 11 -10z m-2964 -26 c-22 -21 -20 -29 10 -53 35 -28 88 -28 107 0 13 18 18
19 35 8 20 -12 19 -14 -16 -27 -66 -25 -85 -25 -122 0 -26 17 -36 32 -38 56
-3 27 0 32 18 32 19 0 20 -1 6 -16z m638 -5 c-3 -5 -8 -22 -10 -36 -8 -44 -14
-40 -14 10 0 37 3 45 15 41 8 -4 12 -10 9 -15z m1516 -1 c0 -17 -2 -18 -15 -4
-8 8 -15 16 -15 19 0 2 7 4 15 4 8 0 15 -9 15 -19z m640 -3 c0 -31 -38 -72
-75 -81 -17 -4 -40 -1 -61 10 -19 9 -42 16 -52 16 -13 0 -12 3 7 16 21 15 23
15 37 -5 26 -36 101 -25 124 19 7 14 6 23 -6 34 -14 15 -14 16 5 16 16 0 21
-6 21 -25z m-1553 9 c-3 -3 -12 -4 -19 -1 -8 3 -5 6 6 6 11 1 17 -2 13 -5z
m310 0 c-3 -3 -12 -4 -19 -1 -8 3 -5 6 6 6 11 1 17 -2 13 -5z m1135 -19 c-3
-20 0 -25 15 -25 10 0 25 6 33 13 12 10 12 9 1 -5 -13 -18 -56 -25 -64 -10 -5
7 9 52 16 52 2 0 2 -11 -1 -25z m-2588 -27 c-9 -15 -51 -8 -65 10 -11 14 -11
15 1 5 21 -19 50 -16 50 5 0 14 2 15 9 2 6 -8 7 -18 5 -22z m746 10 c0 -19 -2
-20 -10 -8 -5 8 -10 10 -10 4 0 -7 -10 -14 -21 -17 -21 -6 -21 -5 2 19 28 30
39 30 39 2z m1132 -15 c21 -20 38 -41 38 -46 0 -5 -12 6 -27 23 -24 29 -28 30
-39 16 -11 -15 -12 -15 -18 0 -8 21 -8 44 1 44 4 0 24 -17 45 -37z m-901 -43
c4 0 10 10 12 23 3 14 5 8 6 -15 1 -39 -25 -104 -46 -112 -20 -8 -15 11 6 31
13 12 17 23 12 32 -12 19 -34 9 -38 -18 -2 -13 -9 -32 -17 -43 -17 -24 -26
-13 -36 44 -7 38 -7 38 11 22 26 -24 34 -11 21 33 -14 46 -6 58 9 15 17 -49
32 -39 26 16 l-6 47 16 -37 c9 -21 19 -38 24 -38z m143 48 c14 -23 -3 -52 -33
-56 -18 -3 -21 2 -21 31 0 18 3 37 7 41 11 11 35 3 47 -16z m384 -16 c2 -22
-2 -34 -12 -38 -34 -13 -61 37 -34 64 21 21 43 9 46 -26z m125 -12 c-7 -48 10
-54 26 -8 15 43 23 31 9 -15 -13 -43 -6 -56 17 -33 9 9 18 16 20 16 4 0 -14
-81 -21 -92 -8 -12 -33 24 -37 53 -4 27 -26 37 -38 18 -5 -9 -1 -20 12 -32 21
-20 26 -39 7 -31 -22 8 -48 73 -47 112 1 23 3 29 6 15 6 -32 19 -29 32 7 14
42 20 37 14 -10z m427 20 c0 -11 -2 -20 -4 -20 -2 0 -6 9 -9 20 -3 11 -1 20 4
20 5 0 9 -9 9 -20z m-1569 -13 c-10 -9 -11 -8 -5 6 3 10 9 15 12 12 3 -3 0
-11 -7 -18z m1603 7 c3 -8 2 -12 -4 -9 -6 3 -10 10 -10 16 0 14 7 11 14 -7z
m-1305 -69 c1 -5 -22 -44 -49 -84 -39 -59 -50 -70 -50 -50 0 27 34 89 50 89 5
0 10 9 10 20 0 38 -25 20 -52 -38 -25 -50 -28 -54 -28 -27 1 36 13 59 60 112
l35 39 12 -25 c7 -14 12 -30 12 -36z m1110 -42 c6 -12 11 -34 11 -49 0 -23 -4
-19 -29 27 -30 57 -51 73 -51 40 0 -12 5 -21 10 -21 16 0 50 -62 49 -90 0 -23
-1 -24 -12 -6 -7 10 -29 45 -50 77 -36 54 -38 60 -27 93 l11 34 38 -41 c21
-23 43 -52 50 -64z m-1309 87 c0 -5 -7 -10 -15 -10 -8 0 -15 5 -15 10 0 6 7
10 15 10 8 0 15 -4 15 -10z m1430 0 c0 -5 -7 -10 -15 -10 -8 0 -15 5 -15 10 0
6 7 10 15 10 8 0 15 -4 15 -10z m-1946 -15 c-4 -8 -8 -15 -10 -15 -2 0 -4 7
-4 15 0 8 4 15 10 15 5 0 7 -7 4 -15z m596 5 c0 -5 -5 -10 -11 -10 -5 0 -7 5
-4 10 3 6 8 10 11 10 2 0 4 -4 4 -10z m1848 -15 c-3 -3 -9 2 -12 12 -6 14 -5
15 5 6 7 -7 10 -15 7 -18z m-1803 5 c-3 -5 -12 -10 -18 -10 -7 0 -6 4 3 10 19
12 23 12 15 0z m1165 0 c0 -5 -2 -10 -4 -10 -3 0 -8 5 -11 10 -3 6 -1 10 4 10
6 0 11 -4 11 -10z m210 -1 c0 -15 -18 -19 -23 -6 -3 8 1 14 9 14 8 0 14 -4 14
-8z m-1490 -24 c0 -8 -4 -15 -9 -15 -5 0 -17 -3 -26 -7 -15 -5 -16 -3 -6 15
13 25 41 29 41 7z m1310 0 c7 -9 8 -15 2 -15 -5 0 -12 7 -16 15 -3 8 -4 15 -2
15 2 0 9 -7 16 -15z m111 -11 c7 -20 5 -20 -17 -10 -13 6 -24 17 -24 24 0 21
32 9 41 -14z m-974 -6 c-3 -8 -6 -5 -6 6 -1 11 2 17 5 13 3 -3 4 -12 1 -19z
m490 0 c-3 -8 -6 -5 -6 6 -1 11 2 17 5 13 3 -3 4 -12 1 -19z m-1045 -5 c-6 -3
-10 -9 -6 -14 3 -5 0 -9 -5 -9 -6 0 -11 4 -11 8 0 12 23 32 29 25 3 -3 0 -8
-7 -10z m1618 -14 c0 -5 -5 -9 -11 -9 -5 0 -7 5 -4 10 3 6 1 10 -4 10 -6 0
-11 5 -11 11 0 8 5 8 15 -1 8 -7 15 -16 15 -21z m-1113 -54 c-8 -6 -17 -19
-20 -30 -4 -11 -4 -3 -1 19 3 21 10 50 17 65 l11 26 4 -35 c2 -22 -2 -38 -11
-45z m607 -1 c4 -16 2 -41 -4 -55 -9 -22 -10 -22 -5 7 4 21 1 35 -10 44 -8 7
-15 28 -15 49 1 36 1 36 14 11 8 -14 17 -39 20 -56z m-939 57 c3 -5 1 -12 -5
-16 -5 -3 -10 1 -10 9 0 18 6 21 15 7z m155 -32 c0 -29 -13 -36 -39 -20 -11 7
-10 13 5 34 23 30 34 26 34 -14z m990 -14 c0 -3 -8 -5 -17 -3 -11 2 -17 -2
-15 -10 1 -8 -2 -11 -8 -7 -11 7 -14 58 -4 68 6 6 44 -35 44 -48z m120 34 c0
-6 -4 -7 -10 -4 -5 3 -10 11 -10 16 0 6 5 7 10 4 6 -3 10 -11 10 -16z m-1316
-5 c10 -26 7 -32 -24 -48 -32 -15 -41 -7 -15 14 19 16 20 34 1 27 -10 -4 -13
-1 -9 9 7 19 39 18 47 -2z m443 -6 c-3 -8 -6 -5 -6 6 -1 11 2 17 5 13 3 -3 4
-12 1 -19z m470 0 c-3 -8 -6 -5 -6 6 -1 11 2 17 5 13 3 -3 4 -12 1 -19z m486
8 c4 -10 1 -13 -9 -9 -19 7 -18 -11 1 -27 8 -7 15 -20 15 -29 -1 -14 -2 -14
-11 2 -5 9 -16 17 -24 17 -19 0 -27 16 -20 40 7 23 40 27 48 6z m-1549 -41
c-4 -8 -11 -15 -16 -15 -6 0 -5 6 2 15 7 8 14 15 16 15 2 0 1 -7 -2 -15z m406
-36 c0 -9 -9 -46 -20 -81 -11 -34 -20 -79 -21 -98 0 -33 -1 -34 -10 -11 -12
31 -1 107 17 122 11 9 11 15 3 25 -19 23 -27 7 -35 -63 -6 -56 -8 -63 -16 -43
-11 30 -3 66 31 141 23 52 28 57 39 42 6 -9 12 -25 12 -34z m254 36 c3 -9 0
-15 -9 -15 -8 0 -15 7 -15 15 0 8 4 15 9 15 5 0 11 -7 15 -15z m356 6 c0 -12
-20 -25 -27 -18 -7 7 6 27 18 27 5 0 9 -4 9 -9z m80 -28 c0 -26 -3 -34 -11
-26 -9 9 -3 63 7 63 2 0 4 -17 4 -37z m-1208 5 c-8 -8 -52 -12 -119 -13 -96
-1 -105 0 -78 11 37 16 87 17 118 3 19 -9 31 -8 53 4 31 17 45 14 26 -5z m680
-30 c-9 -9 -12 -4 -11 23 0 32 1 33 11 11 8 -17 8 -26 0 -34z m730 0 c32 -67
41 -108 30 -138 -7 -20 -10 -15 -15 32 -9 77 -16 92 -33 77 -13 -10 -13 -14 0
-28 19 -22 29 -91 17 -121 l-10 -25 0 29 c-1 17 -10 63 -22 104 -19 68 -20
122 -1 122 4 0 19 -24 34 -52z m545 31 c31 14 81 13 118 -3 27 -11 19 -12 -75
-11 -103 1 -130 6 -130 26 0 5 14 2 31 -7 25 -12 37 -14 56 -5z m-1547 1 c0
-5 -5 -10 -11 -10 -5 0 -7 5 -4 10 3 6 8 10 11 10 2 0 4 -4 4 -10z m1085 -19
c11 -22 12 -32 3 -37 -7 -4 -8 -3 -4 4 4 7 2 12 -4 12 -6 0 -8 5 -5 10 3 6 1
10 -4 10 -6 0 -11 7 -11 15 0 23 8 18 25 -14z m-1211 3 c7 -18 -7 -40 -35 -55
-15 -7 -17 -6 -13 6 4 8 12 15 20 15 8 0 14 7 14 16 0 12 -6 15 -21 11 -16 -4
-18 -3 -8 9 15 19 35 18 43 -2z m170 1 c-4 -8 -13 -15 -22 -15 -13 0 -12 3 4
15 24 18 25 18 18 0z m1185 1 c10 -12 8 -13 -8 -9 -15 4 -21 1 -21 -11 0 -9 7
-16 15 -16 8 0 15 -4 15 -10 0 -14 -11 -12 -33 5 -13 9 -17 20 -12 34 7 24 27
27 44 7z m-174 -37 c12 -22 13 -34 5 -47 -11 -16 -11 -16 -6 1 3 9 1 17 -5 17
-6 0 -8 4 -4 9 3 5 1 12 -5 16 -6 4 -8 11 -5 16 4 5 1 9 -4 9 -6 0 -11 5 -11
11 0 17 19 0 35 -32z m-1069 19 c5 -7 3 -8 -6 -3 -10 6 -12 4 -6 -11 5 -14 4
-16 -5 -7 -6 6 -8 16 -5 22 9 14 13 14 22 -1z m153 -19 c-11 -7 -11 -9 3 -9
10 0 15 -7 13 -17 -2 -10 -4 -24 -4 -32 -1 -10 -4 -11 -14 -2 -8 6 -17 8 -20
4 -4 -3 -7 -1 -7 5 0 7 5 12 11 12 7 0 9 9 5 24 -6 25 1 39 16 29 6 -3 4 -9
-3 -14z m-482 -11 c-3 -8 -6 -5 -6 6 -1 11 2 17 5 13 3 -3 4 -12 1 -19z m358
-9 c-5 -39 -12 -47 -21 -24 -4 10 -1 21 7 26 8 5 10 9 6 9 -5 0 -5 5 -2 10 11
17 14 11 10 -21z m293 -34 l1 -20 -9 20 c-5 11 -8 31 -8 45 l0 25 8 -25 c4
-14 8 -34 8 -45z m82 55 c0 -5 -4 -10 -10 -10 -5 0 -10 5 -10 10 0 6 5 10 10
10 6 0 10 -4 10 -10z m546 -13 c1 -10 -2 -15 -9 -11 -7 3 -4 -1 6 -9 21 -17
22 -26 2 -23 -26 4 -42 37 -28 58 8 14 26 4 29 -15z m474 8 c0 -8 -2 -15 -4
-15 -2 0 -6 7 -10 15 -3 8 -1 15 4 15 6 0 10 -7 10 -15z m-645 -35 c-4 -17 -9
-29 -12 -26 -3 2 -2 19 2 36 4 17 9 29 12 26 3 -2 2 -19 -2 -36z m-865 15 c17
-21 8 -39 -34 -63 -34 -20 -35 -20 -23 -1 6 10 20 22 30 25 23 7 10 27 -14 21
-23 -6 -24 -3 -3 17 19 20 28 20 44 1z m64 0 c3 -8 1 -15 -4 -15 -6 0 -10 7
-10 15 0 8 2 15 4 15 2 0 6 -7 10 -15z m1146 -12 c-1 -24 -2 -26 -11 -10 -5 9
-7 22 -4 27 10 17 15 11 15 -17z m94 11 c21 -21 20 -22 -9 -16 -29 5 -34 -14
-6 -23 11 -3 22 -12 25 -20 5 -13 1 -13 -25 0 -36 19 -46 40 -29 60 16 19 25
19 44 -1z m-2578 -28 c123 -50 253 -71 444 -71 96 0 231 4 300 8 116 8 124 8
109 -8 -13 -13 -20 -14 -42 -4 -21 10 -41 8 -111 -10 -47 -11 -95 -21 -106
-21 -12 0 -18 -4 -15 -10 8 -13 71 -13 95 0 10 6 21 6 24 1 3 -4 18 -7 33 -4
26 3 26 3 6 -6 -42 -19 -119 -24 -144 -10 -13 7 -47 11 -76 10 -30 -1 -86 7
-128 19 -42 12 -88 20 -103 18 -20 -2 -5 -9 53 -25 159 -44 321 -55 415 -27
31 9 67 13 86 9 35 -6 56 -25 29 -25 -21 0 -14 -24 8 -28 28 -6 33 29 8 50
-13 10 -18 18 -13 18 6 0 14 -4 17 -10 3 -5 13 -10 21 -10 8 0 12 5 9 11 -4 6
1 17 11 25 17 14 16 15 -22 12 -35 -3 -40 -1 -36 15 4 15 11 17 51 11 25 -4
47 -8 49 -9 2 -2 -17 -42 -42 -89 l-46 -86 -14 28 c-8 15 -26 38 -40 51 -24
22 -29 23 -63 12 -59 -19 -210 -25 -293 -12 -41 7 -118 27 -171 45 -53 19
-116 37 -140 41 -84 13 -163 37 -192 57 -24 17 -31 18 -38 7 -6 -10 -9 -6 -9
14 0 33 2 33 76 3z m1600 -70 c-3 -23 -9 -70 -13 -105 -5 -53 -8 -60 -15 -41
-5 13 -7 35 -4 49 19 102 19 104 -3 98 -23 -6 -26 6 -14 63 l6 33 25 -28 c20
-24 23 -35 18 -69z m670 -56 c4 -64 3 -89 -8 -103 -11 -15 -13 -5 -10 73 3 78
1 90 -13 90 -12 0 -15 -7 -11 -32 8 -44 10 -88 6 -118 -3 -24 -6 -6 -25 130
-6 49 -4 58 16 84 l23 30 8 -35 c4 -19 10 -72 14 -119z m1614 123 c0 -20 -3
-24 -9 -14 -7 11 -14 10 -38 -7 -29 -20 -108 -44 -192 -57 -24 -4 -87 -22
-140 -41 -160 -55 -299 -68 -435 -39 -69 14 -70 14 -94 -8 -13 -12 -31 -35
-39 -51 l-15 -28 -44 87 c-25 48 -44 88 -42 90 2 1 24 5 49 9 40 6 47 4 51
-11 4 -16 -1 -18 -36 -15 -38 3 -39 2 -22 -12 10 -9 15 -20 10 -27 -5 -9 -2
-10 9 -6 48 19 51 19 28 0 -27 -22 -23 -57 6 -51 23 4 29 28 6 28 -17 1 -17 1
1 15 25 19 58 19 120 0 89 -27 254 -16 411 28 58 16 73 23 53 25 -15 2 -61 -6
-103 -18 -42 -12 -98 -20 -128 -19 -29 1 -62 -3 -74 -9 -28 -15 -78 -14 -128
4 -29 10 -32 13 -12 10 15 -2 30 1 33 5 3 5 14 5 24 -1 24 -13 87 -13 95 0 3
6 -3 10 -15 10 -11 0 -59 10 -106 21 -70 18 -90 20 -111 10 -22 -10 -29 -9
-42 4 -15 16 -7 16 109 8 69 -4 206 -8 305 -7 158 0 194 3 290 26 61 14 130
35 155 46 61 28 70 27 70 -5z m-2795 7 c3 -5 1 -10 -4 -10 -6 0 -11 5 -11 10
0 6 2 10 4 10 3 0 8 -4 11 -10z m715 -21 c0 -5 -4 -9 -10 -9 -5 0 -10 7 -10
16 0 8 5 12 10 9 6 -3 10 -10 10 -16z m216 -6 c-10 -10 -19 5 -10 18 6 11 8
11 12 0 2 -7 1 -15 -2 -18z m-651 7 c3 -5 1 -10 -4 -10 -6 0 -11 5 -11 10 0 6
2 10 4 10 3 0 8 -4 11 -10z m-65 -31 c0 -15 -69 -85 -70 -71 0 8 13 26 29 42
23 21 27 30 18 39 -9 10 -8 11 6 6 9 -4 17 -11 17 -16z m222 -7 c-6 -2 -8 -11
-5 -20 5 -13 3 -14 -6 -6 -10 9 -10 16 1 33 8 13 14 17 17 9 2 -7 -1 -14 -7
-16z m121 -9 c-4 -11 -3 -14 5 -9 14 9 15 -3 2 -24 -8 -13 -10 -12 -10 3 0 9
-4 17 -10 17 -5 0 -7 -6 -4 -14 3 -8 1 -16 -3 -19 -5 -3 -10 14 -12 39 -2 43
-1 45 18 34 13 -7 18 -16 14 -27z m244 -15 c-2 -13 -4 -5 -4 17 -1 22 1 32 4
23 2 -10 2 -28 0 -40z m302 8 c-2 -25 -6 -43 -9 -41 -4 2 -6 20 -5 40 2 19 -1
32 -6 30 -4 -3 -6 -13 -3 -23 5 -14 4 -14 -4 -2 -8 10 -8 18 0 27 20 24 29 13
27 -31z m95 29 c3 -8 1 -15 -4 -15 -6 0 -10 7 -10 15 0 8 2 15 4 15 2 0 6 -7
10 -15z m-1024 2 c0 -2 -10 -12 -22 -23 l-23 -19 19 23 c18 21 26 27 26 19z
m657 -44 c-3 -10 -5 -2 -5 17 0 19 2 27 5 18 2 -10 2 -26 0 -35z m601 40 c-2
-5 10 -20 25 -35 15 -15 27 -33 27 -40 0 -7 -16 4 -35 24 -35 38 -44 58 -25
58 6 0 9 -3 8 -7z m48 -15 l19 -23 -25 20 c-14 11 -27 21 -29 22 -2 2 0 3 6 3
5 0 18 -10 29 -22z m164 12 c0 -5 -5 -10 -11 -10 -5 0 -7 5 -4 10 3 6 8 10 11
10 2 0 4 -4 4 -10z m-2791 -35 c1 6 6 3 12 -5 8 -11 12 -12 16 -2 8 20 20 14
25 -13 6 -26 -14 -51 -32 -40 -5 3 -10 13 -10 21 0 8 -9 14 -20 14 -11 0 -20
-4 -20 -10 0 -5 5 -10 11 -10 5 0 8 -4 4 -9 -3 -6 6 -21 20 -34 18 -16 22 -24
11 -24 -8 0 -13 4 -11 8 3 4 -2 10 -10 13 -26 10 -37 54 -23 93 12 33 13 34
19 12 4 -13 8 -19 8 -14z m1533 -17 c-10 -22 -11 -21 -11 12 -1 26 2 31 11 22
8 -8 8 -17 0 -34z m2422 -33 c-3 -14 -10 -25 -14 -25 -5 0 -11 -8 -14 -18 -6
-18 -36 -27 -36 -10 0 4 6 8 14 8 13 0 31 27 28 43 -1 4 3 7 8 7 6 0 10 5 10
10 0 6 -9 10 -20 10 -11 0 -20 -6 -20 -14 0 -24 -18 -28 -43 -11 -13 8 -27 12
-30 8 -4 -3 -7 5 -7 18 1 22 2 23 14 7 19 -25 26 -22 26 10 1 26 1 27 16 7 11
-14 18 -16 21 -7 3 6 9 10 14 6 5 -3 9 3 9 13 1 13 5 11 16 -9 8 -16 12 -38 8
-53z m-2804 45 c-9 -16 -8 -20 6 -20 10 0 15 -3 11 -6 -3 -4 -13 -4 -22 0 -13
4 -14 10 -5 26 6 11 13 20 16 20 2 0 0 -9 -6 -20z m660 -25 c13 -15 12 -34 -9
-205 -7 -51 -8 -53 -16 -26 -11 38 -11 69 -1 134 7 44 5 52 -8 52 -12 0 -15
-9 -14 -42 1 -24 1 -68 0 -98 -2 -42 -5 -51 -12 -38 -6 9 -9 72 -8 141 l3 125
26 -13 c14 -8 31 -21 39 -30z m367 -81 c3 -143 -10 -197 -21 -85 -3 40 -3 83
0 96 5 19 2 25 -10 25 -13 0 -15 -11 -9 -79 3 -43 2 -91 -2 -107 -7 -25 -10
-20 -18 41 -5 39 -10 97 -11 130 -1 57 0 60 33 82 19 13 34 23 35 23 1 0 2
-57 3 -126z m43 100 c0 -8 -4 -14 -8 -14 -5 0 -8 -22 -8 -49 0 -27 3 -48 7
-45 4 2 7 -18 7 -46 1 -52 -14 -80 -17 -32 0 15 -3 54 -6 87 -6 70 2 128 16
120 5 -4 9 -13 9 -21z m140 10 c0 -8 -5 -12 -10 -9 -6 4 -8 11 -5 16 9 14 15
11 15 -7z m40 -17 c0 -18 -2 -19 -10 -7 -13 20 -13 43 0 35 6 -3 10 -16 10
-28z m384 17 c4 -9 1 -23 -5 -30 -8 -10 -8 -14 0 -14 6 0 11 -5 11 -11 0 -5
-5 -7 -11 -3 -8 5 -10 -1 -7 -18 3 -16 0 -25 -8 -25 -18 0 -24 35 -7 41 8 3
12 10 8 15 -3 5 -1 12 5 16 7 4 7 12 0 26 -6 11 -7 19 -1 19 5 0 12 -7 15 -16z
m-1936 -3 c10 -6 9 -11 -4 -22 -14 -11 -16 -11 -10 0 5 8 3 17 -5 22 -8 5 -9
9 -4 9 6 0 16 -4 23 -9z m2243 0 c-8 -5 -10 -14 -5 -22 6 -11 4 -11 -10 0 -13
11 -14 16 -4 22 7 5 18 9 23 9 6 0 4 -4 -4 -9z m-3005 -28 c-10 -10 -19 5 -10
18 6 11 8 11 12 0 2 -7 1 -15 -2 -18z m704 17 c0 -5 -5 -10 -11 -10 -5 0 -7 5
-4 10 3 6 8 10 11 10 2 0 4 -4 4 -10z m620 -1 c0 -6 -15 -25 -32 -43 -18 -18
-41 -44 -51 -57 -17 -23 -17 -23 -1 11 9 19 23 43 32 53 8 9 12 20 8 25 -5 4
-16 -4 -25 -17 -9 -14 -24 -34 -34 -45 -17 -21 -17 -20 -6 9 16 45 48 75 81
75 15 0 28 -5 28 -11z m202 -69 c2 -66 1 -77 -9 -63 -15 19 -18 143 -4 143 5
0 11 -36 13 -80z m976 58 c11 -13 25 -36 31 -53 l11 -30 -20 25 c-12 14 -28
33 -36 43 -9 11 -18 16 -21 13 -4 -3 1 -14 9 -23 9 -10 23 -34 32 -53 16 -34
16 -34 -1 -11 -10 13 -33 39 -50 57 -18 18 -33 37 -33 43 0 20 56 12 78 -11z
m557 12 c3 -5 1 -10 -4 -10 -6 0 -11 5 -11 10 0 6 2 10 4 10 3 0 8 -4 11 -10z
m-1417 -62 c2 -71 -4 -98 -21 -98 -8 0 -8 3 1 12 15 15 16 32 2 23 -10 -6 -7
38 6 103 7 36 10 26 12 -40z m224 -7 c10 -11 14 -21 10 -21 -5 0 -23 21 -41
48 -29 42 -16 32 31 -27z m52 34 c-14 -19 -29 -35 -31 -35 -5 0 7 18 36 53 26
31 23 18 -5 -18z m-1880 -5 c-5 -21 -3 -30 6 -30 10 0 9 -4 -1 -16 -12 -15
-14 -13 -21 11 -4 16 -2 35 5 46 16 26 18 24 11 -11z m963 8 c-3 -8 -6 -5 -6
6 -1 11 2 17 5 13 3 -3 4 -12 1 -19z m474 -19 l-10 -24 0 26 c-1 14 2 29 6 33
12 12 14 -9 4 -35z m1276 19 c-3 -8 -6 -5 -6 6 -1 11 2 17 5 13 3 -3 4 -12 1
-19z m975 -43 c-7 -24 -9 -25 -20 -12 -7 9 -9 18 -4 21 5 3 7 18 5 33 -5 27
-5 28 10 7 11 -14 14 -30 9 -49z m-3643 18 c0 -33 -1 -35 -9 -15 -8 20 -4 52
6 52 2 0 4 -17 3 -37z m2200 10 c0 -25 -1 -26 -9 -8 -12 27 -12 35 0 35 6 0
10 -12 9 -27z m1394 -46 c-2 -29 -5 -58 -8 -64 -5 -15 -51 -17 -60 -3 -3 6 1
10 9 10 12 0 13 6 5 32 -5 18 -9 44 -9 58 1 22 3 21 23 -15 l22 -40 3 50 c2
29 6 44 11 36 5 -7 7 -36 4 -64z m-2603 9 c-14 -14 -19 -5 -13 28 6 30 6 30
15 6 5 -14 5 -27 -2 -34z m281 44 c10 -6 19 -14 19 -18 0 -5 -22 -32 -50 -60
-27 -29 -50 -48 -50 -43 0 27 23 62 45 71 30 11 33 30 5 30 -11 0 -30 -16 -45
-37 -14 -21 -25 -32 -25 -25 0 11 67 92 77 92 2 0 13 -5 24 -10z m1096 -22
c18 -18 33 -36 33 -41 0 -6 -11 2 -25 17 -26 29 -55 35 -55 11 0 -8 9 -15 20
-15 11 0 26 -12 35 -30 27 -52 16 -51 -35 2 -27 28 -50 55 -50 59 0 7 29 28
40 29 2 0 19 -14 37 -32z m-2444 -5 c5 -26 4 -26 -9 -8 -16 22 -18 35 -5 35 5
0 11 -12 14 -27z m118 -47 c-8 -30 -7 -36 5 -36 9 0 12 -4 9 -10 -7 -12 -52
-14 -58 -2 -2 4 -7 20 -11 36 -6 23 -4 27 9 22 11 -4 21 5 33 31 14 30 18 33
20 15 2 -11 -1 -37 -7 -56z m3639 66 c0 -5 -6 -17 -14 -27 -13 -18 -14 -18 -9
8 5 24 23 39 23 19z m-2164 -14 c5 -7 3 -8 -5 -3 -10 5 -11 -6 -7 -51 4 -40 3
-53 -3 -39 -16 34 -13 105 5 105 2 0 6 -5 10 -12z m193 -2 c6 -8 11 -18 10
-22 -1 -5 -1 -16 0 -24 1 -13 2 -13 11 0 6 9 10 10 10 3 0 -6 -5 -15 -10 -18
-7 -4 -7 -13 0 -26 8 -14 7 -19 -1 -19 -6 0 -8 -7 -5 -16 3 -8 2 -13 -3 -10
-5 3 -13 0 -19 -7 -10 -12 -12 -18 -12 -37 0 -22 -16 -8 -18 16 -1 19 4 27 18
31 11 3 20 9 20 14 0 5 -8 6 -17 3 -15 -5 -15 -4 -3 4 8 6 18 8 24 5 5 -4 7 1
3 11 -4 10 -7 26 -7 37 0 16 -4 18 -18 10 -15 -8 -18 -5 -16 17 2 48 11 55 33
28z m199 -12 c2 -14 -6 -22 -33 -30 -19 -6 -35 -7 -35 -3 0 5 6 9 14 9 8 0 18
4 21 10 4 6 -1 7 -12 3 -17 -6 -16 -5 1 16 22 25 40 23 44 -5z m-1798 -16 c-1
-26 -3 -30 -10 -16 -6 9 -7 23 -4 32 9 25 14 19 14 -16z m3371 -15 c-9 -15
-10 -12 -10 17 0 29 1 32 10 18 7 -12 7 -24 0 -35z m-1400 -34 c-9 -32 -10
-31 -6 16 4 60 6 67 12 39 2 -12 0 -37 -6 -55z m-1070 48 c-6 -8 -7 -18 -3
-22 4 -5 1 -5 -5 -1 -8 4 -13 2 -14 -6 0 -11 -2 -11 -6 0 -3 7 3 20 13 27 24
18 29 19 15 2z m-141 -24 c0 -19 -3 -24 -9 -15 -7 11 -10 10 -15 -3 -3 -9 -6
-23 -6 -32 0 -8 -14 -34 -31 -58 -24 -33 -30 -51 -27 -74 3 -17 0 -31 -5 -31
-5 0 -7 -6 -4 -14 3 -8 -1 -20 -9 -26 -19 -16 -18 -5 2 73 13 52 88 207 100
207 2 0 4 -12 4 -27z m478 2 c1 -13 -16 -39 -53 -74 -52 -52 -54 -53 -46 -23
13 44 19 52 41 52 19 0 34 25 24 41 -11 18 -32 8 -44 -20 -14 -36 -60 -81 -60
-60 0 19 37 81 58 97 26 20 76 11 80 -13z m989 -23 c18 -24 33 -51 33 -60 0
-23 -57 33 -65 65 -4 16 -12 23 -23 21 -24 -5 -22 -42 3 -46 27 -5 34 -13 45
-52 l10 -34 -55 54 c-70 69 -74 104 -11 98 22 -2 39 -15 63 -46z m422 -27 c48
-87 53 -113 11 -60 -16 21 -30 49 -30 62 0 13 -7 26 -15 29 -13 5 -23 44 -11
44 2 0 23 -34 45 -75z m695 13 l20 -33 6 30 6 30 7 -25 c12 -44 8 -69 -14 -80
-16 -9 -26 -8 -45 5 -22 14 -36 44 -14 30 12 -8 12 17 0 70 -10 43 -4 39 34
-27z m-3303 -13 c-8 -31 -7 -36 5 -31 11 4 12 2 5 -13 -24 -43 -82 -31 -80 17
0 15 5 36 10 47 8 19 9 19 6 -2 -3 -36 16 -31 38 10 23 42 32 27 16 -28z
m2449 48 c0 -8 -5 -11 -12 -7 -8 5 -9 0 -6 -14 5 -17 2 -22 -13 -22 -10 0 -19
-5 -19 -11 0 -5 4 -8 9 -4 5 3 12 1 15 -4 3 -5 -3 -11 -13 -14 -24 -6 -37 39
-14 47 8 3 11 11 7 17 -4 8 -3 9 4 5 7 -4 12 -1 12 7 0 7 7 14 15 14 8 0 15
-7 15 -14z m-2390 -13 c0 -11 -4 -20 -9 -20 -5 0 -7 9 -4 20 3 11 7 20 9 20 2
0 4 -9 4 -20z m56 -50 c-20 -76 -20 -75 2 -59 9 7 6 1 -7 -14 -26 -29 -40 -34
-37 -14 0 6 -3 12 -9 12 -5 0 -9 -7 -8 -15 1 -11 -3 -9 -13 4 -18 25 -18 46 0
46 14 0 76 84 76 103 0 6 3 8 6 5 3 -4 -2 -34 -10 -68z m3114 -40 c24 -13 25
-20 6 -46 -10 -13 -14 -15 -13 -4 1 8 -2 15 -8 15 -5 0 -9 -6 -9 -12 3 -20
-11 -15 -37 14 -13 15 -16 21 -6 14 19 -15 22 -5 8 31 -4 13 -11 41 -15 63
l-7 40 31 -52 c16 -29 39 -57 50 -63z m3 90 c3 -11 1 -23 -4 -26 -5 -3 -9 6
-9 20 0 31 6 34 13 6z m-3487 1 c-6 -9 22 -26 37 -22 5 1 5 -3 2 -9 -5 -8 -13
-7 -28 3 -24 16 -34 37 -17 37 6 0 9 -4 6 -9z m440 -77 c-33 -71 -14 -66 39
10 46 69 56 61 21 -18 -16 -36 -21 -56 -13 -56 7 -1 1 -10 -12 -21 -58 -48
-89 3 -52 86 12 27 16 45 9 45 -6 0 -3 9 8 21 30 34 30 -1 0 -67z m1528 60
c-3 -17 -1 -23 7 -19 7 5 7 0 -1 -16 l-13 -24 23 20 c20 17 23 18 17 3 -4 -10
-2 -18 3 -18 6 0 10 -7 10 -16 0 -8 -4 -12 -10 -9 -5 3 -10 1 -10 -4 0 -6 5
-11 10 -11 6 0 10 -8 10 -17 0 -15 -3 -14 -15 4 -9 12 -14 28 -13 34 2 7 -3
13 -10 14 -21 0 -32 27 -20 49 10 19 10 20 -5 7 -15 -11 -17 -11 -17 2 0 9 8
18 18 20 9 3 18 5 19 6 1 0 0 -11 -3 -25z m1388 -12 c-6 -2 -2 -22 9 -48 39
-86 4 -134 -57 -79 -17 14 -22 23 -12 19 15 -5 14 2 -8 50 -36 79 -26 89 21
20 52 -75 72 -81 40 -12 -14 29 -25 62 -25 72 0 19 0 19 21 0 11 -10 16 -20
11 -22z m446 27 c-2 -6 -8 -11 -13 -11 -6 -1 -16 -8 -23 -17 -10 -12 -12 -13
-6 -1 12 24 26 40 36 40 5 0 8 -5 6 -11z m-2771 -21 c-3 -8 -6 -5 -6 6 -1 11
2 17 5 13 3 -3 4 -12 1 -19z m89 -12 c-5 -19 -4 -20 8 -3 19 25 27 21 16 -9
-9 -22 -8 -25 5 -20 13 5 14 2 5 -15 -12 -21 -37 -21 -32 1 1 7 -2 18 -8 24
-5 7 -7 16 -3 19 3 4 1 7 -5 7 -6 0 -9 7 -6 15 9 22 27 6 20 -19z m651 12 c-3
-8 -6 -5 -6 6 -1 11 2 17 5 13 3 -3 4 -12 1 -19z m250 0 c-3 -8 -6 -5 -6 6 -1
11 2 17 5 13 3 -3 4 -12 1 -19z m740 0 c-3 -8 -6 -5 -6 6 -1 11 2 17 5 13 3
-3 4 -12 1 -19z m-2186 -39 c-11 -18 -27 -34 -36 -35 -10 -2 -6 10 16 37 37
47 49 46 20 -2z m89 1 c-18 -23 -48 -52 -67 -67 -24 -19 -30 -28 -21 -34 9 -6
8 -10 -7 -15 -11 -5 -20 -3 -23 4 -5 17 -22 15 -22 -3 0 -8 -5 -15 -11 -15 -6
0 -8 7 -5 16 3 9 6 18 6 20 0 2 9 4 20 4 11 0 20 4 20 9 0 7 129 121 138 121
2 0 -11 -18 -28 -40z m2534 -45 c26 -25 55 -45 62 -45 8 0 14 -2 14 -4 0 -2 3
-11 6 -20 3 -9 1 -16 -5 -16 -6 0 -11 7 -11 15 0 17 -16 20 -25 5 -8 -14 -18
-13 -41 5 -18 13 -18 14 6 9 22 -5 20 -1 -16 30 -23 19 -54 52 -70 73 l-29 38
30 -22 c17 -12 52 -43 79 -68z m36 45 c11 -16 16 -31 11 -34 -8 -5 -51 55 -51
70 0 10 20 -7 40 -36z m-2245 -35 c9 -32 14 -60 12 -62 -4 -4 -37 105 -37 122
0 20 11 -7 25 -60z m500 56 c3 -6 -11 -38 -30 -73 -32 -55 -35 -59 -30 -28 4
19 16 44 26 56 23 24 24 34 5 34 -8 0 -27 -23 -43 -52 -30 -56 -46 -43 -17 14
26 50 72 76 89 49z m872 -11 c22 -20 49 -87 40 -97 -3 -3 -17 18 -31 46 -15
28 -33 51 -41 51 -20 0 -19 -10 4 -34 10 -12 22 -37 26 -56 5 -31 2 -27 -30
28 -19 35 -33 67 -30 73 10 15 40 10 62 -11z m-600 -22 c-3 -7 -5 -2 -5 12 0
14 2 19 5 13 2 -7 2 -19 0 -25z m-1697 13 c1 10 4 8 11 -4 5 -9 7 -22 3 -29
-5 -8 -2 -9 9 -5 10 3 17 2 17 -3 0 -5 8 -7 18 -4 13 4 14 3 4 -4 -8 -5 -13
-12 -13 -16 3 -24 0 -28 -14 -16 -8 7 -12 16 -9 21 3 5 1 9 -4 9 -4 0 -19 15
-32 33 -14 18 -16 26 -7 18 14 -11 17 -11 17 0z m340 -11 c-6 -11 -13 -20 -16
-20 -2 0 0 9 6 20 6 11 13 20 16 20 2 0 0 -9 -6 -20z m350 16 c0 -2 -26 -27
-58 -54 -35 -31 -63 -48 -70 -43 -8 5 11 24 55 54 68 47 73 50 73 43z m788
-76 c0 -39 -3 -81 -9 -93 -7 -16 -8 -6 -5 38 l5 60 -15 -50 c-9 -27 -20 -54
-26 -60 -16 -16 1 87 18 106 17 19 19 42 2 37 -6 -2 -16 -22 -23 -44 -13 -45
-35 -88 -41 -81 -2 2 5 34 16 70 19 60 51 103 70 92 3 -2 7 -36 8 -75z m112
64 c0 -8 -4 -12 -10 -9 -5 3 -10 10 -10 16 0 5 5 9 10 9 6 0 10 -7 10 -16z
m377 -6 c-3 -8 -6 -5 -6 6 -1 11 2 17 5 13 3 -3 4 -12 1 -19z m291 -73 c26
-78 23 -94 -8 -38 l-21 38 6 -42 c7 -60 -9 -54 -28 10 l-16 52 4 -60 c4 -45 3
-54 -5 -37 -9 21 -11 148 -2 165 11 22 49 -26 70 -88z m340 63 c4 2 8 -1 10
-7 8 -25 -24 -9 -48 24 l-15 20 24 -20 c13 -11 26 -19 29 -17z m137 -43 c-8
-22 -13 -29 -10 -15 3 14 9 41 13 60 4 23 8 28 10 15 1 -11 -4 -38 -13 -60z
m318 21 c39 -26 54 -42 45 -47 -11 -7 -87 48 -119 87 -17 21 -13 19 74 -40z
m627 39 c-7 -8 -17 -12 -23 -8 -6 4 -8 0 -5 -9 4 -8 -5 -28 -18 -44 -17 -21
-22 -23 -17 -9 3 11 11 23 17 27 6 4 11 15 11 25 0 10 5 18 12 18 6 0 15 3 19
8 13 13 17 7 4 -8z m-1825 -15 c3 -5 1 -10 -4 -10 -6 0 -11 5 -11 10 0 6 2 10
4 10 3 0 8 -4 11 -10z m-1115 -27 c-23 -30 -57 -55 -105 -79 -23 -12 -26 -12
-12 -1 9 8 17 18 17 23 0 7 102 79 118 83 2 1 -6 -11 -18 -26z m2280 -56 c0
-5 10 -18 23 -28 12 -11 -6 -3 -40 18 -34 21 -71 51 -83 66 -21 26 -19 26 39
-10 33 -21 60 -42 61 -46z m-1905 53 c-4 -12 -2 -20 5 -20 20 0 6 -33 -15 -36
-20 -3 -20 -3 -1 12 11 8 14 14 8 14 -7 0 -13 8 -13 18 -1 15 -2 14 -6 -2 -4
-15 -7 -16 -14 -5 -5 9 -1 18 14 26 29 16 29 16 22 -7z m423 -14 c4 -36 -17
-118 -29 -110 -12 7 -11 84 1 84 6 0 10 9 10 20 0 11 -7 20 -16 20 -8 0 -12 5
-9 11 13 20 40 4 43 -25z m631 20 c10 -12 8 -13 -8 -9 -16 4 -21 1 -21 -16 0
-11 5 -21 10 -21 12 0 13 -77 1 -84 -20 -13 -43 118 -24 137 11 11 30 8 42 -7z
m-2066 -16 c3 -11 1 -20 -4 -20 -5 0 -9 9 -9 20 0 11 2 20 4 20 2 0 6 -9 9
-20z m807 -83 c-10 -10 -12 -9 -7 6 4 10 0 33 -7 52 -8 18 -11 36 -8 40 4 4
13 -14 21 -39 12 -39 12 -48 1 -59z m890 82 c0 -5 -3 -8 -7 -8 -20 3 -24 -2
-13 -15 9 -12 8 -15 -9 -13 -25 2 -25 1 -5 32 15 23 34 26 34 4z m110 -29 c0
-3 -9 -6 -21 -7 -17 -2 -18 1 -9 13 11 13 7 18 -12 15 -10 -1 -10 13 -1 23 6
6 42 -31 43 -44z m680 41 c0 -12 -16 -28 -35 -35 -14 -6 -16 -10 -7 -13 10 -4
8 -9 -5 -19 -11 -8 -13 -13 -5 -14 6 0 12 -4 12 -10 0 -5 -7 -7 -15 -4 -8 4
-15 2 -15 -3 0 -5 -9 -9 -21 -9 -18 0 -18 2 -5 12 19 14 20 35 4 54 -7 8 -4 7
8 -3 27 -22 33 -22 27 3 -4 14 0 20 10 20 9 0 19 5 23 12 4 6 3 8 -4 4 -6 -3
-13 -3 -16 2 -2 4 6 8 20 8 13 0 24 -2 24 -5z m174 -32 c-9 -17 -12 -39 -8
-52 5 -17 4 -20 -6 -10 -10 10 -10 21 0 57 7 25 16 43 21 40 5 -3 2 -19 -7
-35z m803 8 c-2 -18 -6 -38 -10 -44 -5 -8 -1 -11 14 -8 17 3 19 2 9 -10 -7 -8
-16 -12 -21 -9 -5 3 -9 1 -9 -4 0 -5 -12 -18 -27 -27 -16 -10 -23 -12 -16 -5
8 9 9 20 2 38 -10 27 -3 45 10 24 6 -10 11 -9 22 4 8 10 9 15 3 11 -6 -3 -4 9
5 28 9 19 17 34 19 35 1 0 1 -15 -1 -33z m43 18 c0 -8 -2 -15 -4 -15 -2 0 -6
7 -10 15 -3 8 -1 15 4 15 6 0 10 -7 10 -15z m-1992 -27 c14 -14 16 -77 3 -97
-12 -19 -25 22 -17 55 5 17 2 24 -7 24 -10 0 -14 -13 -14 -41 0 -45 -18 -74
-29 -45 -4 9 -4 33 -1 52 9 57 38 79 65 52z m462 2 c22 -12 35 -68 25 -107
l-8 -28 -14 34 c-8 19 -12 45 -8 58 4 17 1 23 -11 23 -12 0 -15 -6 -10 -23 7
-28 -3 -69 -15 -61 -13 8 -11 88 3 102 15 15 15 15 38 2z m-1923 -6 c-3 -3
-12 -4 -19 -1 -8 3 -5 6 6 6 11 1 17 -2 13 -5z m998 -21 c-13 -25 -13 -28 5
-35 26 -9 26 -17 0 -15 -11 1 -22 7 -25 15 -3 7 -10 10 -17 6 -7 -4 0 7 16 24
36 39 39 40 21 5z m1722 -125 c6 -71 -21 -238 -40 -238 -5 0 -6 8 -1 18 4 9 8
34 8 54 1 20 7 43 14 49 12 13 17 71 6 82 -3 3 -21 -10 -40 -28 -19 -19 -34
-30 -34 -25 0 5 18 27 40 49 43 43 48 57 26 86 -8 11 -12 25 -9 32 3 7 1 13
-4 13 -5 0 -7 15 -5 32 l5 33 14 -45 c7 -25 16 -75 20 -112z m650 146 c-3 -3
-12 -4 -19 -1 -8 3 -5 6 6 6 11 1 17 -2 13 -5z m-3376 -30 c2 2 4 -13 4 -35 1
-22 -2 -33 -7 -26 -4 6 -8 8 -8 3 0 -5 -7 -3 -15 4 -17 15 -20 40 -4 40 6 0 9
-7 6 -15 -4 -8 -2 -17 2 -19 5 -3 8 5 7 17 -1 15 -8 22 -23 23 -14 1 -20 -3
-16 -12 3 -8 3 -14 0 -14 -14 0 -14 31 0 45 14 14 17 14 33 0 9 -8 19 -13 21
-11z m869 -5 c15 -28 5 -23 -15 7 -9 15 -12 23 -6 20 6 -4 16 -16 21 -27z
m1634 6 c-9 -14 -18 -25 -21 -25 -5 0 5 18 20 38 17 22 18 13 1 -13z m-2073
-5 c24 11 24 11 -1 -9 -29 -24 -50 -27 -50 -8 0 20 12 29 21 16 5 -8 13 -8 30
1z m1089 -36 c0 -21 -4 -33 -10 -29 -5 3 -10 22 -10 41 0 21 4 33 10 29 6 -3
10 -22 10 -41z m94 37 c4 -5 0 -11 -6 -14 -10 -3 -9 -8 2 -22 13 -16 13 -18 0
-13 -17 5 -27 58 -11 58 5 0 12 -4 15 -9z m154 -18 c-2 -14 -10 -29 -18 -31
-13 -5 -13 -3 0 13 11 14 12 19 2 22 -14 5 -7 23 9 23 6 0 9 -12 7 -27z m83
-43 c-9 -23 -10 -21 -10 16 -1 22 2 44 7 48 11 12 14 -37 3 -64z m1129 44 c0
-18 -20 -17 -45 2 -20 16 -20 16 3 9 13 -4 22 -2 22 5 0 6 5 8 10 5 6 -3 10
-13 10 -21z m-2898 -29 c3 3 6 -6 6 -21 0 -14 6 -30 13 -35 16 -10 8 -12 -15
-3 -8 3 -12 12 -9 20 4 12 0 13 -21 4 -14 -5 -26 -7 -26 -5 0 12 6 20 13 17 5
-1 6 2 3 7 -4 5 -2 12 3 16 6 3 8 13 5 23 -3 9 1 7 8 -6 8 -12 17 -20 20 -17z
m2203 25 c3 -5 1 -10 -4 -10 -6 0 -11 5 -11 10 0 6 2 10 4 10 3 0 8 -4 11 -10z
m1032 -30 c11 -27 11 -40 2 -34 -5 3 -6 10 -3 16 4 7 2 8 -4 4 -6 -4 -8 -14
-5 -22 5 -14 3 -15 -15 -5 -12 7 -22 14 -22 17 0 3 6 2 13 -2 8 -5 7 -2 -2 9
-18 23 -7 34 16 16 14 -10 16 -10 6 0 -6 7 -9 21 -5 29 5 13 6 14 10 1 2 -7 6
-21 9 -29z m-3149 -21 c-10 -7 -9 -12 3 -25 19 -19 59 -11 59 12 0 21 16 17
17 -5 2 -22 -22 -31 -81 -31 -37 0 -38 1 -20 15 19 14 19 14 -1 11 -11 -2 -14
-1 -7 1 9 3 11 14 6 36 l-6 32 21 -19 c16 -15 18 -21 9 -27z m726 25 c3 -8 2
-12 -4 -9 -6 3 -10 10 -10 16 0 14 7 11 14 -7z m2315 -15 c-25 -16 -33 -9 -13
10 10 10 21 14 23 8 2 -5 -3 -13 -10 -18z m-2146 1 c3 -12 1 -17 -5 -14 -5 3
-17 -1 -27 -10 -15 -14 -18 -14 -18 -1 0 8 6 15 13 15 6 0 14 7 18 15 7 20 13
19 19 -5z m1242 10 c3 -5 13 -7 23 -4 14 5 15 4 2 -5 -13 -9 -13 -11 3 -11 9
0 17 -7 17 -17 0 -15 -2 -15 -19 1 -11 10 -25 15 -32 10 -9 -5 -10 -2 -6 9 3
9 1 18 -6 21 -9 3 -9 5 0 5 6 1 14 -3 18 -9z m-1182 -11 c-6 -6 -9 -17 -7 -24
3 -7 1 -16 -5 -20 -7 -4 -9 1 -5 12 5 16 4 16 -8 2 -9 -11 -19 -14 -33 -8 -20
7 -20 8 1 8 11 1 29 10 39 21 10 11 21 20 24 20 3 0 0 -5 -6 -11z m1166 -34
c8 0 16 -6 19 -12 2 -7 -1 -13 -8 -13 -6 0 -9 4 -5 10 3 5 -7 8 -22 7 -19 -1
-27 2 -25 12 1 7 -3 21 -9 30 -6 9 -1 5 12 -9 13 -14 30 -25 38 -25z m-1549
28 c0 -5 -15 -8 -34 -8 -19 0 -32 3 -29 8 2 4 17 7 34 7 16 0 29 -3 29 -7z
m1943 0 c3 -5 -10 -8 -29 -8 -19 0 -34 3 -34 8 0 4 13 7 29 7 17 0 32 -3 34
-7z m-1048 -31 c-7 -8 -35 7 -35 18 0 6 7 6 20 -2 10 -7 17 -14 15 -16z m120
9 c-3 -6 -14 -11 -23 -11 -13 0 -13 2 4 14 21 15 30 14 19 -3z m-1425 -1 c-8
-5 -19 -10 -25 -10 -5 0 -3 5 5 10 8 5 20 10 25 10 6 0 3 -5 -5 -10z m354 -69
c14 -14 26 -28 26 -33 0 -5 -13 5 -29 21 -16 16 -32 27 -35 24 -11 -11 -6 -69
6 -81 7 -7 13 -29 13 -50 1 -20 5 -45 9 -54 5 -11 4 -18 -1 -18 -15 0 -43 142
-43 213 1 60 1 61 14 32 7 -16 25 -41 40 -54z m2361 69 c3 -6 -1 -7 -9 -4 -18
7 -21 14 -7 14 6 0 13 -4 16 -10z m175 0 c0 -5 -2 -10 -4 -10 -3 0 -8 5 -11
10 -3 6 -1 10 4 10 6 0 11 -4 11 -10z m5 -16 c9 3 13 2 10 -4 -8 -13 -95 -13
-95 -1 0 5 9 7 20 4 12 -3 20 0 20 7 0 10 3 10 15 0 8 -7 22 -10 30 -6z
m-2508 -24 c6 0 14 6 16 13 4 9 6 9 6 0 2 -30 -52 -26 -64 4 -5 15 -4 15 13 0
10 -9 23 -17 29 -17z m1956 9 c-22 -22 -54 -20 -52 3 0 10 2 10 6 1 6 -17 28
-16 43 2 7 8 15 15 18 15 4 0 -3 -10 -15 -21z m-1123 -19 c0 -24 -3 -28 -17
-23 -11 4 -12 8 -5 11 7 2 12 12 12 23 0 10 2 19 5 19 3 0 5 -13 5 -30z m282
-11 c5 -3 3 -9 -6 -12 -13 -5 -16 0 -15 26 1 21 3 25 6 12 3 -11 10 -23 15
-26z m408 28 c14 4 20 0 20 -10 0 -16 -16 -17 -37 -4 -9 6 -13 2 -13 -12 0
-12 -5 -21 -12 -21 -6 0 -4 -6 6 -13 11 -8 16 -20 13 -28 -4 -10 -6 -9 -6 4
-1 10 -5 16 -10 13 -5 -3 -11 1 -15 9 -8 22 -26 18 -26 -5 0 -27 -16 -25 -24
2 -6 26 -24 15 -29 -19 -5 -32 -14 -37 -20 -13 -3 11 -1 18 4 14 5 -3 9 13 9
36 l0 41 25 -28 24 -28 1 25 c0 19 3 21 12 12 20 -20 35 -14 43 16 4 15 9 22
12 16 2 -7 13 -10 23 -7z m-1083 -27 c1 -22 1 -23 -4 -2 -3 14 -9 20 -16 15
-20 -13 -37 -12 -37 1 0 8 11 13 28 12 21 -1 27 -6 29 -26z m477 21 c3 -5 -3
-11 -14 -14 -13 -3 -20 0 -20 9 0 15 26 19 34 5z m124 -19 c3 -17 -1 -22 -20
-21 -17 1 -18 3 -5 6 21 6 23 23 1 23 -8 0 -12 5 -9 11 10 16 30 5 33 -19z
m-854 -1 c10 -11 15 -25 11 -31 -3 -6 -1 -9 6 -8 6 2 14 -3 16 -9 3 -7 -1 -13
-9 -13 -10 0 -9 -3 2 -11 11 -8 12 -12 3 -16 -7 -2 -13 -9 -13 -15 0 -6 6 -6
15 2 8 7 15 9 15 6 0 -4 5 -4 11 -1 6 5 4 12 -8 21 -10 7 -13 14 -7 14 6 0 17
-7 24 -15 7 -8 9 -15 4 -15 -5 0 -3 -4 5 -9 11 -7 11 -13 -3 -32 -9 -13 -16
-18 -16 -11 0 6 -6 12 -12 12 -20 1 -97 83 -94 100 5 25 18 50 26 50 4 0 15
-9 24 -19z m335 -6 c23 28 24 29 18 6 -3 -13 -2 -33 4 -43 6 -12 6 -18 -1 -18
-5 0 -10 7 -10 16 0 9 -7 14 -17 12 -10 -2 -18 -9 -18 -15 0 -7 -5 -17 -11
-23 -8 -8 -9 -2 -6 20 5 33 -11 41 -27 13 -6 -10 -11 -13 -11 -7 0 6 10 22 23
36 l22 25 5 -26 5 -25 24 29z m1244 8 c-4 -10 -2 -14 4 -10 6 4 13 -3 16 -14
4 -15 -5 -32 -35 -63 -22 -22 -36 -35 -32 -27 5 10 3 13 -8 8 -9 -3 -22 0 -29
6 -7 7 -6 2 4 -9 16 -19 16 -22 2 -28 -9 -3 -13 -2 -10 3 9 15 -15 25 -28 12
-9 -9 -7 -10 7 -5 11 4 17 3 14 -2 -3 -5 -8 -17 -12 -28 -5 -16 -9 -16 -23 -5
-15 12 -16 12 -10 -3 6 -16 -3 -23 -25 -19 -5 0 -8 -5 -8 -12 0 -8 -4 -7 -10
3 -8 13 -10 13 -10 -2 0 -9 -9 -19 -20 -23 -22 -7 -63 -59 -53 -69 3 -3 1 -6
-5 -6 -6 0 -9 -7 -6 -15 4 -8 1 -15 -6 -15 -7 0 -9 -8 -5 -21 5 -16 4 -19 -5
-14 -9 5 -10 2 -5 -14 6 -20 4 -21 -46 -16 -65 6 -81 18 -17 14 41 -4 45 -2
37 13 -5 9 -8 25 -8 35 1 17 2 17 6 1 7 -26 22 -22 16 5 -4 18 -3 19 6 7 10
-14 16 -6 11 15 -1 6 -4 20 -5 33 -3 19 -1 21 11 11 8 -6 18 -9 21 -5 4 4 1
11 -7 16 -11 7 -7 12 20 24 19 8 50 30 69 50 19 19 39 32 44 29 6 -3 7 -1 4 5
-4 5 13 28 38 50 25 22 45 43 45 48 0 10 41 54 51 54 5 0 5 -7 2 -17z m-1173
-83 c-4 -24 -5 -24 -8 5 -2 16 -9 33 -15 37 -9 6 -9 8 1 8 6 0 11 3 11 8 -5
28 5 30 10 2 4 -19 4 -46 1 -60z m653 70 c3 -11 1 -18 -4 -14 -5 3 -9 12 -9
20 0 20 7 17 13 -6z m97 -6 c-1 -4 4 -11 12 -15 10 -7 10 -9 1 -9 -8 0 -13
-14 -14 -32 -1 -30 -2 -31 -8 -9 -7 26 -1 105 6 84 3 -7 4 -15 3 -19z m-1260
6 c0 -5 -5 -10 -11 -10 -5 0 -7 5 -4 10 3 6 8 10 11 10 2 0 4 -4 4 -10z m207
-27 c-3 -10 -5 -4 -5 12 0 17 2 24 5 18 2 -7 2 -21 0 -30z m1353 12 c0 -14 -4
-25 -9 -25 -4 0 -6 11 -3 25 2 14 6 25 8 25 2 0 4 -11 4 -25z m215 15 c3 -5 1
-10 -4 -10 -6 0 -11 5 -11 10 0 6 2 10 4 10 3 0 8 -4 11 -10z m-1835 -15 c0
-8 -2 -15 -4 -15 -2 0 -6 7 -10 15 -3 8 -1 15 4 15 6 0 10 -7 10 -15z m607 9
c-9 -10 12 -46 24 -39 5 4 9 1 9 -4 0 -6 -5 -11 -11 -11 -5 0 -7 -6 -3 -12 4
-7 4 -10 0 -6 -4 3 -8 10 -8 15 0 4 -7 17 -14 28 -17 24 -18 35 -2 35 6 0 8
-3 5 -6z m280 0 c-3 -3 -12 -4 -19 -1 -8 3 -5 6 6 6 11 1 17 -2 13 -5z m403
-3 c0 -6 -4 -13 -10 -16 -5 -3 -10 1 -10 9 0 9 5 16 10 16 6 0 10 -4 10 -9z
m604 -6 c-4 -8 -8 -15 -10 -15 -2 0 -4 7 -4 15 0 8 4 15 10 15 5 0 7 -7 4 -15z
m-1586 -46 c-3 -20 -5 -19 -9 9 -3 20 -2 29 4 23 5 -5 7 -19 5 -32z m1273 9
c-3 -21 -6 -26 -9 -15 -3 17 3 47 11 47 2 0 1 -15 -2 -32z m-1174 0 c-3 -8 -6
-5 -6 6 -1 11 2 17 5 13 3 -3 4 -12 1 -19z m474 4 c-7 -2 -18 1 -23 6 -8 8 -4
9 13 5 13 -4 18 -8 10 -11z m139 8 c0 -5 -8 -10 -17 -10 -15 0 -16 2 -3 10 19
12 20 12 20 0z m-969 -26 c-12 -15 -21 -34 -21 -42 0 -8 -3 -12 -7 -8 -9 8 26
76 39 76 5 0 0 -12 -11 -26z m701 -14 c-2 -22 -8 -40 -13 -40 -5 0 -7 12 -3
28 14 64 21 70 16 12z m38 18 c0 -18 -2 -20 -9 -8 -6 8 -7 18 -5 22 9 14 14 9
14 -14z m313 -3 c-7 -21 -13 -19 -13 6 0 11 4 18 10 14 5 -3 7 -12 3 -20z m40
-22 c4 -18 3 -33 -2 -33 -5 0 -11 18 -13 40 -4 46 6 41 15 -7z m124 25 c1 -10
-3 -18 -8 -18 -6 0 -7 5 -4 10 3 6 1 10 -4 10 -6 0 -11 4 -11 8 0 17 26 8 27
-10z m578 -11 c10 -19 15 -40 12 -48 -3 -9 -6 -6 -6 7 -1 12 -10 33 -22 48
-11 14 -16 26 -11 26 5 0 17 -15 27 -33z m-1315 3 c0 -5 -2 -10 -4 -10 -3 0
-8 5 -11 10 -3 6 -1 10 4 10 6 0 11 -4 11 -10z m-540 -14 c0 -7 -9 -16 -20
-19 -25 -6 -26 8 -2 22 22 13 22 13 22 -3z m1933 -11 c4 -9 -1 -11 -14 -8 -10
3 -19 11 -19 19 0 16 26 8 33 -11z m-1833 -56 c0 -71 36 -175 75 -217 33 -36
35 -37 112 -38 75 -1 79 -2 96 -30 32 -54 39 -98 21 -144 -28 -71 -46 -70
-117 2 -44 46 -85 75 -142 104 -100 49 -107 61 -111 208 -3 107 -3 108 7 41 5
-38 18 -86 28 -105 43 -82 57 -101 78 -106 12 -3 24 -12 27 -20 3 -8 16 -14
29 -14 14 0 30 -7 38 -16 8 -10 22 -14 40 -10 15 3 30 2 34 -2 4 -4 17 -7 28
-7 16 0 23 -7 25 -24 4 -28 -12 -49 -23 -30 -5 8 -4 10 3 5 7 -4 12 -1 12 8 0
9 -7 16 -15 16 -19 0 -20 -39 -1 -46 8 -3 12 -15 10 -27 l-5 -22 10 21 c5 12
14 25 20 29 16 9 13 48 -5 95 l-16 40 -63 0 c-78 0 -103 9 -154 56 -64 57
-100 202 -70 281 14 38 29 14 29 -48z m270 56 c-7 -9 -15 -13 -19 -10 -3 3 1
10 9 15 21 14 24 12 10 -5z m1180 -7 c0 -6 -6 -5 -15 2 -8 7 -15 14 -15 16 0
2 7 1 15 -2 8 -4 15 -11 15 -16z m288 -52 c3 -38 -2 -76 -17 -125 -17 -57 -29
-76 -66 -109 -48 -42 -78 -52 -159 -52 -50 0 -53 -2 -69 -35 -19 -40 -22 -91
-6 -100 6 -4 15 -17 20 -29 l10 -21 -5 22 c-2 12 2 24 10 27 19 7 18 46 -1 46
-8 0 -15 -7 -15 -16 0 -9 5 -12 12 -8 7 5 8 3 3 -5 -11 -19 -27 2 -23 30 2 17
9 24 25 24 11 0 24 3 28 7 4 4 19 5 34 2 18 -4 32 0 40 10 8 9 24 16 38 16 13
0 26 6 29 14 3 8 15 17 27 20 21 5 35 24 78 107 11 19 23 69 29 110 8 70 9 67
5 -43 -2 -69 -9 -128 -17 -145 -9 -20 -36 -39 -93 -67 -57 -29 -98 -58 -142
-104 -72 -73 -90 -73 -118 2 -18 47 -16 65 17 131 l19 40 80 0 c80 0 81 0 114
37 40 43 75 147 75 222 0 90 30 84 38 -8z m-955 57 c-7 -2 -13 -11 -13 -19 0
-9 -4 -13 -10 -9 -14 9 0 35 19 34 10 0 11 -2 4 -6z m161 -8 c3 -8 3 -15 0
-15 -3 0 -12 7 -20 15 -13 13 -13 15 -1 15 8 0 17 -7 21 -15z m-674 -88 c0 2
14 -4 31 -12 17 -9 28 -22 26 -29 -3 -7 -1 -19 5 -27 8 -11 9 -11 4 3 -7 23 9
32 27 14 8 -8 17 -13 19 -10 3 2 16 0 29 -5 20 -8 16 -9 -18 -6 -41 5 -43 3
-41 -20 2 -17 7 -24 16 -20 7 3 10 0 7 -6 -4 -6 3 -7 19 -3 17 4 26 2 26 -6 0
-7 -7 -10 -15 -7 -8 4 -17 2 -21 -4 -3 -6 -12 -8 -20 -5 -8 3 -14 -1 -14 -9 0
-8 3 -14 8 -14 4 1 12 0 17 -1 6 -1 26 -2 45 -2 l35 1 -40 -10 c-46 -11 -62
-24 -44 -34 8 -5 10 -4 5 3 -4 7 -2 12 3 12 6 0 11 -4 11 -8 0 -5 15 -7 33 -5
30 3 31 3 8 -7 -14 -6 -31 -8 -38 -6 -7 3 -13 1 -13 -5 0 -6 -5 -7 -12 -3 -6
4 -8 3 -5 -2 3 -5 20 -11 38 -12 39 -3 53 -12 18 -12 -19 0 -24 -5 -24 -23 1
-13 5 -28 9 -35 4 -7 3 -12 -3 -12 -5 0 -12 6 -14 13 -3 7 -6 5 -6 -5 -1 -10
9 -23 21 -29 19 -10 20 -13 6 -23 -12 -9 -13 -15 -4 -30 8 -14 8 -20 -1 -23
-7 -3 -13 -12 -13 -21 0 -15 2 -15 10 -2 11 17 13 10 4 -14 -3 -9 -10 -16 -15
-16 -10 0 -7 90 4 107 4 6 3 14 -2 17 -5 4 -12 0 -15 -6 -3 -7 -4 6 -2 30 2
23 0 40 -5 36 -5 -3 -10 10 -11 28 -2 47 -3 51 -12 66 -4 7 -5 16 -2 19 3 3 1
12 -6 20 -6 7 -8 16 -5 20 4 3 2 12 -4 19 -7 8 -6 14 2 20 8 5 10 3 4 -7 -5
-8 -5 -11 -1 -7 11 9 8 23 -4 23 -5 0 -10 5 -11 10 0 6 -5 15 -11 22 -5 7 -7
17 -4 22 4 5 1 13 -5 17 -8 5 -10 2 -5 -7 6 -10 4 -10 -6 1 -7 8 -20 16 -28
18 -8 2 -17 8 -18 13 -2 5 -8 7 -13 4 -5 -4 -6 0 -3 8 3 8 0 18 -6 22 -6 3 -9
3 -8 -2 3 -9 -10 -12 -34 -5 -10 2 -15 8 -12 14 3 5 12 4 20 -3 18 -15 18 -2
0 17 -11 10 -15 11 -19 1 -2 -6 -8 -9 -12 -5 -4 4 -2 14 5 22 10 13 19 8 61
-33 27 -27 49 -47 49 -44z m307 76 c-3 -10 -8 -31 -12 -48 -6 -27 -7 -28 -17
-10 -8 14 -8 20 0 23 7 2 12 12 12 21 0 17 8 31 17 31 3 0 2 -8 0 -17z m525
-35 c-6 -24 -8 -21 -16 22 -6 31 -5 32 7 15 8 -10 12 -27 9 -37z m51 1 c6 -4
5 -14 -1 -25 -9 -17 -11 -16 -17 11 -15 67 -15 71 -3 45 7 -14 16 -28 21 -31z
m-767 6 c-8 -8 -16 -20 -19 -27 -2 -7 -8 -10 -12 -6 -4 4 0 14 9 23 9 9 16 21
16 26 0 6 5 7 10 4 6 -4 5 -12 -4 -20z m144 15 c0 -5 -4 -10 -10 -10 -5 0 -10
5 -10 10 0 6 5 10 10 10 6 0 10 -4 10 -10z m79 -17 c0 -25 -1 -25 -8 -8 -5 11
-7 23 -4 28 8 14 13 7 12 -20z m581 17 c0 -5 -4 -10 -10 -10 -5 0 -10 5 -10
10 0 6 5 10 10 10 6 0 10 -4 10 -10z m154 -32 c6 -4 7 -11 2 -15 -5 -4 -11 -2
-13 5 -3 7 -11 18 -18 26 -8 7 -11 17 -8 20 4 4 11 -1 17 -11 5 -10 14 -21 20
-25z m-1464 17 c0 -12 -19 -12 -23 0 -4 9 -1 12 9 8 7 -3 14 -7 14 -8z m570 5
c0 -5 -4 -10 -10 -10 -5 0 -10 5 -10 10 0 6 5 10 10 10 6 0 10 -4 10 -10z
m820 0 c0 -5 -4 -10 -10 -10 -5 0 -10 5 -10 10 0 6 5 10 10 10 6 0 10 -4 10
-10z m570 -12 c0 -6 -6 -5 -15 2 -8 7 -15 14 -15 16 0 2 7 1 15 -2 8 -4 15
-11 15 -16z m-1110 -3 c0 -9 -6 -12 -15 -9 -8 4 -12 10 -9 15 8 14 24 10 24
-6z m264 6 c3 -5 -1 -11 -9 -15 -9 -3 -15 0 -15 9 0 16 16 20 24 6z m-474 -9
c0 -5 -7 -17 -16 -28 -8 -10 -14 -14 -11 -9 2 6 7 18 10 28 7 17 17 23 17 9z
m260 -33 c-50 -41 -63 -36 -16 6 22 19 42 32 45 29 3 -3 -10 -19 -29 -35z
m155 6 c22 -19 37 -36 35 -39 -3 -2 -25 13 -50 35 -25 21 -40 39 -34 39 6 0
28 -16 49 -35z m265 7 c0 -15 -2 -15 -10 -2 -13 20 -13 33 0 25 6 -3 10 -14
10 -23z m-780 8 c0 -5 -4 -10 -10 -10 -5 0 -10 5 -10 10 0 6 5 10 10 10 6 0
10 -4 10 -10z m53 -7 c-3 -7 -9 -13 -14 -13 -5 0 -9 6 -9 13 0 8 6 14 14 14 8
0 12 -6 9 -14z m774 -10 c-3 -3 -11 -2 -17 2 -9 6 -9 10 1 16 14 8 27 -7 16
-18z m53 23 c0 -3 -4 -8 -10 -11 -5 -3 -10 -1 -10 4 0 6 5 11 10 11 6 0 10 -2
10 -4z m-1204 -73 c42 -97 78 -118 111 -65 9 15 18 29 19 31 2 1 7 0 13 -3 27
-17 -28 -86 -69 -86 -33 0 -120 121 -120 168 0 30 22 8 46 -45z m1554 45 c0
-47 -87 -168 -120 -168 -41 0 -96 69 -69 86 6 3 11 4 13 3 1 -2 10 -16 19 -31
33 -53 72 -27 117 76 18 43 40 62 40 34z m-1501 -20 c5 -13 5 -24 -1 -26 -12
-5 -38 18 -38 34 0 23 30 16 39 -8z m531 12 c0 -5 -4 -10 -10 -10 -5 0 -10 5
-10 10 0 6 5 10 10 10 6 0 10 -4 10 -10z m910 -4 c0 -16 -26 -39 -38 -34 -15
5 6 48 23 48 8 0 15 -6 15 -14z m-728 -8 c7 -21 -3 -118 -12 -118 -9 0 -19 97
-12 118 2 6 8 12 12 12 4 0 10 -6 12 -12z m121 -62 c31 -27 57 -56 57 -65 -1
-11 -5 -7 -15 10 -7 14 -31 38 -53 53 -22 15 -50 39 -63 54 -27 31 -17 24 74
-52z m-197 45 c-10 -11 -36 -32 -58 -47 -21 -15 -48 -44 -59 -63 -11 -20 -18
-28 -15 -18 3 10 6 22 6 27 0 8 129 120 139 120 2 0 -4 -9 -13 -19z m-922 -16
c-4 -8 -10 -12 -15 -9 -14 8 -10 24 6 24 9 0 12 -6 9 -15z m811 -29 c-28 -24
-52 -39 -54 -33 -2 6 2 13 9 15 8 3 24 15 36 27 20 20 38 32 54 34 2 1 -18
-19 -45 -43z m341 16 c-4 -3 -14 2 -24 12 -16 18 -16 18 6 6 13 -6 21 -14 18
-18z m838 13 c-4 -8 -7 -15 -9 -15 -2 0 -5 7 -9 15 -3 9 0 15 9 15 9 0 12 -6
9 -15z m-1204 -5 c0 -5 -7 -7 -15 -4 -9 4 -15 0 -15 -10 0 -11 -9 -16 -27 -16
l-28 1 24 19 c24 21 61 27 61 10z m461 -10 l24 -19 -27 -1 c-19 0 -28 5 -28
16 0 10 -6 14 -15 11 -8 -4 -17 -2 -20 3 -11 18 43 10 66 -10z m227 8 c-5 -13
-38 -20 -38 -8 0 5 8 11 18 13 9 3 19 5 20 6 2 0 2 -4 0 -11z m-258 -55 c0
-18 -3 -17 -31 13 l-24 26 28 -13 c15 -7 27 -18 27 -26z m-280 17 c0 -5 -7
-10 -16 -10 -8 0 -12 5 -9 10 3 6 10 10 16 10 5 0 9 -4 9 -10z m130 -6 c0 -2
-7 -4 -15 -4 -8 0 -15 4 -15 10 0 5 7 7 15 4 8 -4 15 -8 15 -10z m380 -24 c0
-5 -7 -10 -15 -10 -8 0 -15 5 -15 10 0 6 7 10 15 10 8 0 15 -4 15 -10z m-505
-10 c3 -6 -1 -7 -9 -4 -18 7 -21 14 -7 14 6 0 13 -4 16 -10z m1034 -17 c0 -16
-3 -22 -6 -15 -2 6 -9 10 -14 6 -13 -8 -11 4 4 21 17 19 17 19 16 -12z m-1958
0 c12 -14 12 -16 0 -8 -11 6 -13 3 -8 -16 4 -13 7 -32 7 -42 0 -11 4 -15 12
-11 8 5 9 2 5 -10 -4 -10 -7 -23 -7 -29 0 -7 -3 -7 -9 -1 -9 9 -25 134 -18
134 3 0 11 -8 18 -17z m661 -15 c-7 -7 -12 -8 -12 -2 0 6 3 14 7 17 3 4 9 5
12 2 2 -3 -1 -11 -7 -17z m628 1 c0 -6 -4 -7 -10 -4 -5 3 -10 11 -10 16 0 6 5
7 10 4 6 -3 10 -11 10 -16z m-564 -24 c0 -19 -5 -36 -10 -38 -12 -5 -13 43 -2
61 11 18 12 15 12 -23z m156 -11 c22 -7 48 11 49 35 0 9 3 11 5 4 9 -21 -16
-53 -41 -53 -23 0 -56 33 -54 55 0 5 5 0 11 -12 6 -13 19 -25 30 -29z m160 -2
c8 -2 24 5 33 15 13 13 17 14 13 3 -2 -8 -17 -19 -32 -25 -23 -8 -30 -6 -42
10 -8 10 -14 26 -14 34 0 10 5 6 13 -9 7 -14 20 -26 29 -28z m192 0 c1 -17 -4
-28 -9 -25 -6 2 -11 19 -11 38 0 43 19 30 20 -13z m-402 -9 c20 -22 20 -22 0
-16 -11 3 -29 14 -39 26 -10 11 -12 17 -5 13 8 -5 12 -1 13 11 0 14 2 15 6 3
3 -8 14 -25 25 -37z m320 23 c7 4 8 2 4 -5 -4 -6 -22 -18 -39 -27 l-32 -17 23
25 c12 13 23 31 23 39 1 9 3 8 6 -4 2 -9 9 -14 15 -11z m318 -32 c0 -8 -4 -14
-9 -14 -4 0 -6 -11 -4 -24 3 -13 -1 -27 -7 -31 -9 -5 -10 -1 -5 16 6 20 5 22
-6 11 -11 -10 -11 -16 -1 -33 8 -12 9 -18 3 -14 -6 3 -11 1 -11 -4 0 -6 5 -11
10 -11 16 0 11 -33 -8 -58 l-18 -23 2 28 c3 40 3 40 14 23 7 -10 10 -11 10 -2
0 7 -6 15 -14 18 -15 6 -12 62 5 94 6 11 -1 18 -29 27 l-37 13 37 -5 c21 -2
37 -1 37 3 -3 19 2 23 16 12 8 -7 15 -19 15 -26z m472 -50 c-8 -14 -10 -12
-14 10 -3 14 -1 26 3 26 5 0 10 12 11 28 1 20 2 17 5 -10 2 -21 0 -45 -5 -54z
m-1252 72 c0 -3 -4 -8 -10 -11 -5 -3 -10 -1 -10 4 0 6 5 11 10 11 6 0 10 -2
10 -4z m304 -14 c18 -13 20 -20 11 -29 -7 -6 -15 -46 -19 -89 -4 -43 -10 -83
-14 -88 -4 -6 -12 32 -18 84 -7 52 -17 96 -23 98 -6 2 -1 12 11 23 28 23 25
23 52 1z m276 3 c0 -8 -2 -15 -4 -15 -2 0 -6 7 -10 15 -3 8 -1 15 4 15 6 0 10
-7 10 -15z m-636 -46 c-24 -27 -30 -15 -9 18 12 17 20 23 23 15 2 -7 -4 -22
-14 -33z m696 -12 c0 -5 -9 -2 -20 8 -11 10 -20 25 -20 34 1 12 5 10 20 -8 11
-13 20 -28 20 -34z m77 17 c-3 -3 -12 -4 -19 -1 -8 3 -5 6 6 6 11 1 17 -2 13
-5z m-617 -14 c0 -5 -2 -10 -4 -10 -3 0 -8 5 -11 10 -3 6 -1 10 4 10 6 0 11
-4 11 -10z m364 -15 c-20 -30 -19 -30 -21 -5 -1 11 2 18 8 15 5 -4 9 -1 9 4 0
6 5 11 10 11 6 0 3 -11 -6 -25z m-494 12 c0 -2 -10 -12 -22 -23 l-23 -19 19
23 c18 21 26 27 26 19z m180 -20 c0 -1 -11 -3 -24 -3 -17 -1 -23 2 -19 12 4
10 10 11 24 3 10 -5 19 -11 19 -12z m465 3 c10 -11 16 -20 13 -20 -3 0 -13 9
-23 20 -10 11 -16 20 -13 20 3 0 13 -9 23 -20z m-601 -11 c-2 -4 6 -15 18 -24
22 -15 22 -16 -21 -13 -25 1 -46 -2 -48 -7 -7 -21 -22 -39 -27 -34 -9 9 52 86
68 86 8 0 13 -4 10 -8z m587 -34 c16 -23 31 -54 32 -70 1 -17 6 -33 12 -37 5
-4 6 -10 3 -14 -4 -3 -21 10 -38 30 -18 20 -36 33 -41 30 -5 -3 -9 0 -9 6 0 6
10 10 23 8 12 -2 21 -9 19 -16 -1 -8 2 -11 8 -7 7 4 6 13 -2 28 -6 12 -11 24
-11 27 1 3 -3 4 -8 3 -5 -2 -9 2 -9 8 0 5 -6 7 -12 3 -10 -6 -10 -4 0 8 11 13
11 18 0 24 -7 4 -10 4 -6 -1 11 -12 -20 -37 -40 -32 -14 4 -13 6 6 12 15 5 21
13 18 22 -12 30 27 7 55 -32z m-395 6 c1 -6 0 -7 -3 -1 -2 5 -13 10 -24 10
-10 0 -19 4 -19 10 0 13 43 -4 46 -19z m189 19 c-3 -5 -12 -10 -20 -10 -7 0
-16 -6 -18 -12 -3 -8 -6 -7 -6 4 -1 10 8 18 22 21 12 2 23 5 25 6 2 0 0 -3 -3
-9z m755 0 c0 -5 -2 -10 -4 -10 -3 0 -8 5 -11 10 -3 6 -1 10 4 10 6 0 11 -4
11 -10z m-30 -36 c0 -20 -7 -17 -20 6 -9 16 -8 18 5 14 8 -4 15 -12 15 -20z
m62 14 c-13 -13 -16 -32 -4 -24 4 2 8 -4 8 -15 0 -10 -4 -19 -9 -19 -4 0 -5
-6 -2 -12 4 -7 -1 -4 -9 6 -17 21 -13 55 8 68 17 12 21 9 8 -4z m-1781 -15 c1
-10 2 -25 3 -33 0 -9 9 -14 20 -12 17 3 18 2 6 -13 -9 -11 -15 -13 -20 -4 -5
6 -13 8 -20 4 -9 -5 -11 -4 -6 3 4 7 1 12 -6 13 -10 0 -11 2 0 6 10 4 10 8 1
19 -9 11 -8 14 2 14 11 0 11 2 -1 10 -13 8 -12 10 3 10 9 0 18 -8 18 -17z m59
8 c0 -6 -4 -13 -10 -16 -5 -3 -10 1 -10 9 0 9 5 16 10 16 6 0 10 -4 10 -9z
m46 -10 c12 10 13 8 6 -12 -13 -34 -32 -36 -31 -2 0 15 3 22 6 15 4 -10 8 -10
19 -1z m1570 -39 c-4 -3 -11 -1 -17 5 -8 8 -8 15 2 26 12 13 14 13 17 -5 2
-11 1 -22 -2 -26z m-1506 1 c0 -16 -37 -63 -43 -56 -13 12 -7 42 11 52 21 12
32 14 32 4z m430 -2 c0 -5 -9 -7 -20 -4 -12 3 -20 2 -18 -3 4 -13 -41 -68 -49
-61 -3 4 2 16 12 27 10 11 13 20 7 20 -7 0 -12 4 -12 10 0 5 6 7 14 4 8 -3 17
-1 21 5 8 13 45 15 45 2z m53 2 c-7 -2 -21 -2 -30 0 -10 3 -4 5 12 5 17 0 24
-2 18 -5z m480 0 c-7 -2 -19 -2 -25 0 -7 3 -2 5 12 5 14 0 19 -2 13 -5z m488
-3 c10 -6 19 -19 19 -29 0 -31 -13 -32 -32 -4 -27 43 -24 52 13 33z m120 -17
c13 -16 12 -17 -3 -4 -17 13 -22 21 -14 21 2 0 10 -8 17 -17z m-1668 -26 c-5
-7 -8 -19 -7 -27 1 -8 2 -23 3 -32 0 -10 5 -18 11 -18 5 0 7 6 4 13 -3 8 2 20
11 27 11 9 15 9 15 1 0 -7 6 -9 13 -5 6 4 2 -3 -11 -15 -20 -19 -21 -25 -10
-39 12 -16 11 -16 -11 -1 -14 9 -30 30 -35 47 -6 17 -15 34 -19 38 -4 5 -5 0
-2 -11 6 -16 5 -17 -4 -5 -8 12 -5 19 11 32 24 18 44 14 31 -5z m1071 -8 c-3
-6 -7 -9 -8 -7 -1 2 -8 12 -16 22 -14 18 -14 19 8 7 12 -7 20 -17 16 -22z
m202 -24 c-4 -19 -11 -37 -15 -40 -5 -3 -4 12 2 32 9 29 9 37 -2 41 -11 4 -11
6 0 13 18 11 23 -3 15 -46z m369 39 c15 -10 22 -21 18 -31 -5 -13 -7 -13 -15
1 -5 9 -14 16 -21 16 -8 0 -7 -3 2 -9 7 -5 10 -14 6 -21 -4 -6 0 -19 9 -28 37
-38 66 -73 66 -80 -1 -4 -18 12 -39 36 l-38 43 -36 -42 c-35 -40 -48 -44 -53
-16 -1 7 -3 18 -5 26 -2 7 2 16 9 18 7 3 10 -1 6 -10 -3 -8 -1 -18 5 -22 6 -3
14 1 17 9 3 9 10 13 15 10 5 -3 9 2 9 11 0 9 4 14 9 10 5 -3 12 -1 16 5 8 13
-18 13 -31 0 -6 -6 -14 -2 -22 11 -8 12 -9 18 -3 14 6 -3 11 -1 11 4 0 6 5 11
11 11 5 0 7 -4 4 -10 -3 -5 1 -10 11 -10 16 0 16 11 -1 53 -9 22 8 22 40 1z
m-1083 -19 c4 -20 2 -23 -8 -14 -7 6 -10 17 -7 25 7 20 10 18 15 -11z m1155
19 c-3 -3 -12 -4 -19 -1 -8 3 -5 6 6 6 11 1 17 -2 13 -5z m-1577 -19 c0 -16
-30 -56 -39 -51 -4 3 -6 18 -4 33 3 20 10 29 24 29 10 0 19 -5 19 -11z m486
-2 c-1 -12 6 -18 19 -18 25 0 81 -103 65 -119 -17 -17 -52 24 -48 56 3 15 0
24 -5 21 -5 -3 -17 4 -28 16 -11 12 -25 19 -31 15 -5 -4 -2 5 7 20 20 31 23
32 21 9z m231 -20 c-3 -10 -5 -4 -5 12 0 17 2 24 5 18 2 -7 2 -21 0 -30z m144
18 c-10 -6 -10 -10 -1 -16 8 -5 7 -12 -5 -25 -18 -20 -54 -23 -51 -5 3 20 18
35 28 29 6 -4 8 -2 4 4 -3 6 2 15 11 21 21 11 34 4 14 -8z m519 -19 c0 -38
-13 -35 -35 8 -14 27 -14 28 10 26 21 -1 25 -6 25 -34z m-1580 24 c0 -2 -7 -7
-16 -10 -8 -3 -12 -2 -9 4 6 10 25 14 25 6z m355 -102 c17 -87 19 -209 4 -274
-6 -25 -14 -74 -19 -110 -5 -36 -15 -83 -24 -105 -13 -37 -15 -38 -15 -12 -1
15 6 44 14 64 8 19 15 43 14 52 0 12 -2 11 -9 -4 -15 -34 -12 7 3 51 8 22 17
53 20 69 l6 30 -14 -30 c-15 -30 -15 -30 -8 15 3 25 10 55 14 68 13 35 10 51
-4 19 -11 -26 -12 -22 -11 40 0 37 4 79 7 93 4 14 -4 3 -17 -25 -16 -32 -25
-43 -25 -30 -1 17 -3 17 -11 5 -5 -8 -10 -24 -10 -35 0 -11 -9 -31 -20 -45
l-19 -25 4 25 c3 14 -4 5 -15 -20 -12 -25 -25 -52 -30 -60 -28 -44 -41 -73
-37 -83 3 -7 10 0 16 16 6 15 15 27 21 27 13 0 13 -31 0 -64 -9 -25 2 -37 15
-16 15 25 27 8 21 -30 -5 -34 -4 -39 10 -33 14 5 16 0 12 -35 -2 -23 0 -42 4
-42 5 0 8 7 8 16 0 8 5 12 10 9 6 -4 8 -21 4 -42 -4 -20 -2 -38 3 -42 6 -3 0
-27 -15 -59 -13 -29 -26 -52 -28 -50 -2 2 3 28 11 58 28 106 7 83 -37 -40 -17
-49 -27 -66 -27 -49 -1 14 10 59 24 99 29 85 29 83 14 74 -6 -3 -22 -30 -35
-58 -12 -28 -23 -44 -23 -35 -1 18 15 73 32 106 19 40 -1 36 -22 -4 -26 -49
-26 -41 -1 25 20 53 13 74 -9 26 -6 -15 -14 -24 -17 -21 -3 3 2 19 11 37 22
43 11 50 -14 9 -12 -19 -21 -27 -21 -19 0 8 9 29 20 45 24 36 26 52 4 34 -15
-12 -16 -9 -9 31 11 66 35 129 116 303 53 115 75 153 81 142 5 -8 15 -49 23
-91z m466 51 c7 0 13 -8 15 -17 2 -16 0 -16 -20 -2 -13 8 -28 26 -34 40 -18
38 -14 42 8 9 11 -16 25 -30 31 -30z m6 23 c-3 -7 -5 -2 -5 12 0 14 2 19 5 13
2 -7 2 -19 0 -25z m694 -198 c32 -69 61 -138 65 -155 6 -27 4 -26 -25 15 -17
25 -31 52 -31 60 0 8 -8 26 -16 40 l-15 25 6 -30 6 -30 -21 33 c-11 18 -20 40
-20 50 0 9 -5 24 -10 32 -8 12 -10 12 -11 -5 0 -13 -9 -2 -25 30 -18 36 -23
42 -18 20 3 -16 7 -58 8 -93 1 -58 0 -61 -11 -35 -14 32 -17 16 -4 -19 4 -13
11 -43 14 -68 7 -45 7 -45 -7 -15 -21 44 -19 19 4 -53 20 -64 26 -104 10 -67
-7 15 -9 16 -9 4 -1 -9 6 -33 15 -54 8 -20 14 -49 12 -64 -3 -24 -5 -23 -17
14 -7 22 -16 69 -21 105 -5 36 -14 90 -20 120 -19 86 -5 277 27 360 3 10 14
-4 31 -40 14 -30 51 -111 83 -180z m247 212 c2 -7 -1 -12 -8 -12 -6 0 -9 4 -6
9 4 5 1 12 -4 14 -6 3 -5 4 2 3 6 -1 14 -8 16 -14z m-1815 -17 c-3 -9 -8 -14
-10 -11 -3 3 -2 9 2 15 9 16 15 13 8 -4z m1845 -10 c-3 -3 -9 2 -12 12 -6 14
-5 15 5 6 7 -7 10 -15 7 -18z m-1791 0 c0 -8 -6 -16 -14 -19 -11 -4 -11 -1 -3
14 13 24 17 25 17 5z m947 0 c-4 -8 -10 -15 -15 -15 -4 0 -6 -7 -3 -15 5 -11
2 -13 -10 -9 -13 5 -16 -1 -17 -27 -1 -19 -5 -45 -10 -59 -6 -17 -7 -7 -3 30
4 30 6 64 6 75 -1 15 1 16 7 6 7 -11 12 -10 22 8 16 24 31 29 23 6z m812 -22
c-8 -8 -36 10 -36 25 0 13 3 12 20 -3 11 -10 18 -20 16 -22z m-1545 -8 c14 9
10 -7 -6 -29 -20 -26 -29 -15 -19 26 5 21 9 27 12 15 2 -9 8 -15 13 -12z m384
-24 c-5 -11 -3 -12 10 -1 9 7 15 9 14 4 -4 -21 2 -28 11 -14 7 11 10 11 10 2
0 -7 5 -10 12 -6 7 4 8 3 4 -4 -9 -15 -46 -16 -46 -1 0 5 -5 7 -11 4 -6 -4
-13 2 -16 14 -3 12 -9 21 -13 21 -4 0 -11 7 -14 15 -5 13 -1 12 19 -2 13 -10
22 -24 20 -32z m941 -18 c-3 -4 -13 2 -21 13 -17 22 -20 38 -5 29 6 -3 10 2
11 12 1 10 6 3 12 -15 5 -18 7 -35 3 -39z m-1523 38 c-3 -11 -16 -30 -30 -43
l-26 -23 12 23 c6 12 16 22 20 22 5 0 11 9 14 20 3 11 7 20 10 20 3 0 3 -9 0
-19z m122 0 c3 -5 0 -13 -6 -16 -5 -4 -8 -13 -5 -21 7 -18 -14 -30 -24 -14
-11 18 -1 40 19 40 14 0 14 2 1 10 -9 6 -10 10 -3 10 6 0 14 -4 18 -9z m1015
-6 c-7 -9 -15 -13 -18 -10 -3 3 -12 -4 -19 -15 -8 -11 -19 -17 -25 -14 -8 5
-9 1 -5 -10 5 -12 0 -19 -18 -26 -14 -5 -25 -12 -25 -15 0 -4 6 -3 13 1 8 5 8
2 -2 -9 -14 -17 -37 -24 -27 -8 3 4 -3 16 -14 26 -11 10 -17 22 -14 27 4 6 -3
5 -14 -1 -12 -6 -23 -7 -26 -3 -3 5 6 15 19 22 14 7 25 18 25 23 0 6 -9 2 -20
-8 -11 -10 -20 -13 -20 -7 0 7 5 12 11 12 5 0 8 4 5 9 -4 5 2 8 11 7 11 -2 19
-13 21 -27 1 -13 3 -30 4 -36 1 -7 8 -13 15 -13 8 0 12 4 8 9 -3 5 -1 12 5 16
5 3 10 0 10 -7 0 -10 3 -9 9 2 6 8 7 18 5 22 -5 8 10 12 35 9 7 -2 10 2 6 8
-5 10 7 15 28 12 4 0 7 4 7 9 0 6 5 10 11 10 8 0 7 -5 -1 -15z m-1113 -19 c-3
-8 -3 -17 1 -19 4 -2 1 -2 -5 -1 -7 2 -13 -3 -13 -10 0 -8 -7 -16 -15 -20 -8
-3 -15 -12 -15 -21 0 -8 -5 -15 -10 -15 -12 0 -11 2 30 63 26 38 36 47 27 23z
m1158 -13 c-5 -10 -9 -24 -11 -32 -1 -8 -10 -18 -19 -23 -8 -5 -13 -13 -10
-18 3 -5 -3 -15 -13 -22 -11 -7 -20 -17 -21 -23 -4 -30 -14 -45 -29 -45 -15 0
-15 -2 -2 -10 12 -7 10 -9 -7 -7 -18 1 -20 4 -12 20 6 10 17 21 25 24 7 3 12
9 9 13 -3 5 3 15 13 22 11 7 20 18 21 23 1 6 10 19 19 30 21 24 21 24 29 53 3
12 8 21 11 18 2 -3 1 -13 -3 -23z m525 -38 c1 13 30 -25 30 -39 0 -5 -11 1
-25 14 -14 13 -25 29 -25 37 0 7 -3 12 -7 11 -10 -4 -13 6 -12 30 0 9 9 -1 20
-23 10 -22 19 -35 19 -30z m-881 -10 c1 -17 -1 -17 -9 -5 -5 8 -9 26 -9 40 0
23 1 23 9 5 5 -11 9 -29 9 -40z m-675 24 c-4 -8 1 -9 17 -5 13 3 19 3 12 0 -7
-3 -9 -12 -6 -20 5 -12 1 -13 -21 -3 -28 13 -33 24 -13 32 18 8 19 8 11 -4z
m541 -20 c20 -18 32 -36 28 -43 -5 -7 -2 -7 8 1 13 10 18 7 32 -16 9 -16 14
-36 11 -45 -3 -9 -2 -16 4 -16 11 0 3 -53 -10 -61 -5 -3 -2 -9 7 -12 9 -4 13
-3 10 2 -3 5 -1 12 5 16 6 4 10 -12 10 -41 0 -49 -7 -56 -13 -13 -2 13 -12 25
-21 27 -16 4 -55 -34 -56 -53 0 -5 5 -3 10 5 8 13 11 13 27 -2 16 -17 16 -18
-8 -18 -35 0 -49 -18 -49 -64 0 -30 -3 -37 -12 -28 -8 8 -16 8 -32 0 -18 -10
-19 -9 -9 4 7 8 10 18 6 21 -3 4 -1 7 6 7 7 0 10 3 8 8 -8 13 12 54 23 47 6
-4 15 7 21 24 6 17 14 31 18 31 12 0 6 95 -7 109 -9 9 -10 17 -2 26 8 10 8 15
-1 21 -8 4 -9 3 -5 -4 4 -7 2 -12 -3 -12 -10 0 -13 7 -10 28 1 4 5 6 11 4 5
-1 7 2 3 7 -3 6 -13 7 -23 4 -15 -6 -15 -5 -3 10 12 16 12 17 -5 10 -17 -6
-18 -5 -4 12 14 17 14 17 -5 8 -15 -8 -23 -7 -32 2 -10 11 -10 15 0 18 21 9
26 8 62 -24z m19 10 c-3 -5 -10 -7 -15 -3 -5 3 -7 10 -3 15 3 5 10 7 15 3 5
-3 7 -10 3 -15z m817 -1 c0 -10 2 -10 6 0 2 6 9 12 14 12 6 0 5 -8 -1 -20 -6
-11 -15 -20 -19 -20 -5 0 -11 9 -14 20 -3 11 -1 20 4 20 5 0 9 -6 10 -12z
m152 -40 c-2 -5 0 -8 5 -8 5 0 12 -10 15 -22 6 -22 6 -22 -14 2 -11 14 -27 39
-36 55 l-16 30 25 -25 c13 -14 23 -28 21 -32z m-1191 17 c3 -13 1 -22 -3 -19
-9 5 -13 44 -5 44 2 0 6 -11 8 -25z m722 -13 c-4 -18 -10 -32 -14 -32 -5 0 -3
16 3 35 13 42 20 40 11 -3z m413 14 c-3 -8 1 -17 9 -20 9 -3 13 -10 10 -15 -4
-5 -1 -12 4 -14 7 -4 6 -5 0 -3 -7 1 -11 6 -11 11 0 6 -7 13 -14 18 -13 7 -11
37 2 37 3 0 3 -6 0 -14z m-1582 -6 c-3 -5 -15 -15 -25 -20 -16 -8 -18 -8 -14
4 3 8 13 17 22 19 10 3 18 5 20 6 2 0 0 -3 -3 -9z m531 -17 c-10 -11 -19 -7
-22 10 -2 15 0 16 12 6 8 -6 12 -14 10 -16z m425 4 c-6 -6 -11 -18 -10 -26 0
-12 3 -11 8 3 5 13 10 16 15 8 4 -6 -2 -19 -13 -29 -11 -9 -18 -21 -15 -25 3
-5 -2 -19 -13 -30 -10 -12 -12 -18 -5 -14 11 6 13 0 11 -27 -2 -20 0 -39 3
-43 4 -4 3 -14 -2 -24 -5 -10 -7 -20 -4 -22 3 -3 -7 -8 -21 -10 -26 -5 -26 -5
-7 16 24 27 18 60 -10 53 -14 -4 -18 -2 -14 9 3 9 2 12 -5 9 -6 -4 -8 -13 -5
-21 3 -8 1 -24 -4 -36 -7 -17 -9 -7 -5 37 2 33 6 69 8 80 3 11 5 27 6 35 1 13
2 13 11 0 6 -9 5 -17 -2 -21 -7 -4 -7 -9 1 -13 10 -7 16 6 12 28 -1 4 3 14 9
21 6 7 7 21 3 31 -6 16 -4 17 9 6 13 -10 16 -9 21 9 3 13 10 18 17 14 9 -5 9
-10 1 -18z m-955 -49 c-14 -24 -26 -39 -26 -35 0 15 41 89 47 84 3 -3 -7 -25
-21 -49z m118 37 c-4 -8 -10 -15 -16 -15 -5 0 -6 -4 -3 -10 3 -5 1 -10 -4 -10
-14 0 -14 6 1 30 15 23 30 27 22 5z m1406 -27 c0 -4 -5 -8 -11 -8 -5 0 -7 5
-4 10 3 6 2 10 -3 10 -6 0 -13 8 -16 17 -6 15 -4 15 14 -2 11 -10 20 -22 20
-27z m-1466 0 c-3 -4 -11 -8 -17 -7 -9 0 -9 2 0 5 7 3 9 13 6 22 -4 14 -3 14
5 2 6 -8 8 -18 6 -22z m348 -11 c3 -29 1 -33 -14 -29 -21 5 -21 4 -8 36 13 34
17 33 22 -7z m53 23 c-3 -6 1 -17 10 -26 9 -9 14 -21 12 -27 -4 -13 -28 -23
-26 -10 1 4 -1 16 -5 26 -8 17 -2 47 9 47 4 0 3 -5 0 -10z m99 -31 c-3 -5 2
-9 10 -9 19 0 44 -47 41 -77 -1 -12 2 -20 7 -17 4 3 8 -4 8 -15 0 -12 -5 -21
-11 -21 -5 0 -7 5 -4 10 3 6 1 10 -4 10 -6 0 -11 8 -11 17 0 9 -7 25 -16 35
-14 15 -15 20 -3 35 12 15 12 16 -3 10 -16 -6 -23 3 -19 26 0 4 -3 7 -9 7 -5
0 -10 8 -10 18 1 16 2 15 15 -2 8 -10 12 -23 9 -27z m273 4 c-3 -10 -5 -4 -5
12 0 17 2 24 5 18 2 -7 2 -21 0 -30z m398 -3 c5 -21 2 -26 -12 -26 -15 0 -18
7 -15 34 5 36 17 32 27 -8z m330 30 c-3 -5 -1 -10 4 -10 6 0 11 -5 11 -11 0
-8 -5 -8 -15 1 -13 11 -12 30 1 30 3 0 2 -4 -1 -10z m-1324 -83 c-8 -8 -11 1
-11 29 0 53 14 67 18 19 2 -21 -1 -42 -7 -48z m546 46 c-3 -10 -5 -4 -5 12 0
17 2 24 5 18 2 -7 2 -21 0 -30z m601 -19 c-4 -39 -4 -39 -15 -13 -7 15 -9 37
-6 49 9 34 25 7 21 -36z m-218 26 c0 -5 -5 -12 -10 -15 -6 -4 -8 -10 -5 -15 3
-5 1 -11 -5 -15 -6 -4 -8 -11 -5 -16 4 -5 -1 -12 -10 -15 -13 -6 -14 -8 -3
-15 10 -7 8 -9 -6 -9 -13 0 -16 4 -11 18 4 9 8 22 8 29 0 7 5 9 10 6 6 -4 8 3
5 15 -4 14 -2 20 4 16 6 -4 8 1 3 15 -5 16 -3 20 9 15 9 -3 16 -10 16 -14z
m-1070 -10 c0 -5 -5 -10 -11 -10 -5 0 -7 5 -4 10 3 6 8 10 11 10 2 0 4 -4 4
-10z m-57 -15 c-3 -9 -8 -14 -10 -11 -3 3 -2 9 2 15 9 16 15 13 8 -4z m1545
-10 c-3 -3 -9 2 -12 12 -6 14 -5 15 5 6 7 -7 10 -15 7 -18z m-1368 -38 c0 -54
-17 -65 -22 -16 -3 24 -3 47 -1 52 9 16 23 -6 23 -36z m177 23 c11 0 8 -8 -12
-31 -14 -18 -25 -41 -23 -53 3 -21 -21 -90 -29 -82 -2 2 6 46 18 97 12 52 24
88 26 82 3 -7 11 -13 20 -13z m1025 -34 c-2 -25 -8 -43 -13 -40 -10 6 -12 77
-3 87 14 14 19 -3 16 -47z m-925 32 c0 -7 4 -20 7 -29 4 -10 2 -16 -7 -16 -9
0 -13 8 -10 21 4 17 3 18 -6 6 -6 -8 -11 -10 -11 -4 0 8 19 34 25 34 1 0 2 -6
2 -12z m768 -60 c9 -40 19 -82 21 -93 3 -11 -4 -5 -14 14 -10 18 -17 43 -15
55 3 14 -5 34 -21 53 -24 28 -25 32 -9 36 10 3 19 5 19 6 1 0 9 -32 19 -71z
m-229 30 c0 -10 -3 -18 -6 -18 -3 0 -10 8 -16 18 -9 14 -8 18 5 18 9 0 17 -8
17 -18z m-851 -56 l-8 -37 -12 40 c-8 27 -8 44 -2 53 17 21 30 -14 22 -56z
m1268 6 l-10 -43 -7 37 c-10 45 -1 77 16 60 8 -8 8 -24 1 -54z m-1212 -28 c-9
-24 -10 -24 -10 7 -1 17 2 40 7 50 6 15 7 14 10 -7 2 -14 -2 -37 -7 -50z m342
55 c-3 -9 -8 -14 -10 -11 -3 3 -2 9 2 15 9 16 15 13 8 -4z m433 3 c4 -6 2 -14
-4 -16 -7 -2 -10 -8 -6 -13 3 -5 0 -9 -5 -9 -6 0 -11 11 -11 25 0 26 14 33 26
13z m374 -48 c0 -26 -3 -31 -10 -20 -5 8 -10 31 -10 50 0 26 3 31 10 20 5 -8
10 -31 10 -50z m-870 -10 c0 -9 5 -21 12 -28 9 -9 9 -12 1 -12 -10 0 -26 30
-28 52 0 3 -3 10 -7 14 -5 4 -8 12 -8 18 0 16 29 -27 30 -44z m528 38 c-5 -13
30 -58 44 -58 4 0 8 11 8 24 0 13 7 29 15 36 10 9 15 9 15 1 0 -6 -5 -11 -12
-11 -6 0 -9 -3 -5 -6 3 -3 1 -19 -5 -36 l-10 -30 -33 32 c-30 29 -42 60 -22
60 5 0 7 -5 5 -12z m166 -14 c23 -22 20 -37 -4 -22 -11 7 -20 18 -20 25 0 17
5 16 24 -3z m-799 -14 c-10 -11 -20 -18 -23 -15 -7 6 18 35 31 35 5 0 2 -9 -8
-20z m155 -5 c-7 -9 -15 -13 -17 -11 -6 6 20 36 26 30 2 -2 -2 -10 -9 -19z
m941 -12 c8 -22 12 -24 19 -13 6 8 10 10 10 4 0 -6 3 -27 7 -45 6 -31 5 -33
-10 -20 -23 18 -21 3 3 -34 11 -16 20 -37 20 -45 0 -8 -9 0 -21 19 -25 41 -36
34 -14 -9 9 -18 14 -34 11 -37 -3 -3 -11 6 -17 21 -7 14 -16 26 -21 26 -10 0
-2 -31 18 -72 8 -15 14 -31 14 -35 -1 -4 -10 9 -21 30 -29 55 -34 40 -9 -32
21 -64 26 -103 8 -61 -17 38 -50 91 -54 88 -2 -2 8 -39 21 -81 33 -104 30
-142 -3 -47 -45 126 -65 146 -37 36 9 -33 14 -60 12 -62 -2 -2 -15 23 -30 56
-14 33 -21 60 -15 60 6 0 8 13 4 35 -8 41 3 70 15 39 5 -13 8 -6 8 25 1 34 4
42 16 37 13 -4 14 1 9 34 -7 41 2 50 24 28 10 -10 11 -2 6 35 -8 53 9 66 27
20z m-551 -5 c0 -18 -2 -20 -9 -8 -6 8 -7 18 -5 22 9 14 14 9 14 -14z m-759
-65 c-8 -15 -10 -10 -11 23 0 22 3 44 8 48 11 12 14 -52 3 -71z m1229 24 c0
-31 -3 -38 -10 -27 -13 20 -13 83 0 75 6 -3 10 -25 10 -48z m-392 18 c6 -14
10 -25 8 -25 -2 0 -11 11 -20 25 -9 14 -13 25 -8 25 5 0 14 -11 20 -25z m-48
-20 c-11 -13 -10 -14 4 -9 9 4 16 3 14 -2 -1 -5 4 -19 11 -32 12 -22 11 -23
-10 -12 -20 11 -21 10 -15 -13 3 -14 9 -33 12 -44 6 -16 5 -16 -9 2 -16 20
-16 20 -18 -2 -1 -13 -2 -29 -3 -35 -1 -7 3 -17 9 -21 5 -5 0 -5 -13 -2 -21 6
-22 4 -19 -29 2 -20 7 -39 10 -43 4 -3 7 -11 7 -17 -1 -12 -17 13 -20 29 -1 6
-6 16 -12 23 -6 6 -7 12 -2 12 5 0 3 4 -4 9 -12 7 -12 12 -1 30 8 11 20 21 28
21 10 0 12 8 7 31 -5 25 -3 30 9 25 13 -4 13 -2 5 14 -11 21 -14 83 -3 94 14
14 26 -13 13 -29z m-390 21 c0 -2 -7 -9 -15 -16 -13 -11 -14 -10 -9 4 5 14 24
23 24 12z m-155 -25 c0 -6 -15 -21 -32 -32 -38 -24 -42 -14 -12 25 21 27 44
30 44 7z m774 -7 c26 -33 27 -48 4 -35 -38 21 -56 38 -49 49 11 18 23 14 45
-14z m-984 -21 c-8 -44 -25 -68 -25 -36 0 26 17 73 26 73 3 0 3 -17 -1 -37z
m1175 -32 c0 -39 -20 -11 -26 35 -5 39 -5 39 10 14 8 -14 15 -36 16 -49z
m-692 39 c7 -11 8 -20 3 -20 -6 0 -15 8 -20 18 -8 12 -10 13 -11 3 0 -8 -3
-12 -6 -8 -7 7 4 27 14 27 4 0 13 -9 20 -20z m218 8 c4 -6 3 -8 -3 -5 -5 4
-16 -5 -23 -18 -7 -14 -17 -25 -21 -25 -4 0 -5 -10 -1 -22 3 -14 2 -19 -6 -14
-7 4 -12 3 -12 -3 0 -5 6 -11 13 -14 9 -3 9 -9 0 -25 -7 -12 -10 -29 -6 -39 3
-10 3 -15 -2 -11 -12 11 -15 58 -3 58 6 0 5 6 -2 15 -11 13 -10 21 0 43 8 15
14 32 15 37 0 6 6 9 13 8 7 -2 12 4 12 12 0 18 16 20 26 3z m-426 -43 c0 -5
-5 -3 -10 5 -5 8 -10 20 -10 25 0 6 5 3 10 -5 5 -8 10 -19 10 -25z m586 -51
c-18 -43 -41 -104 -51 -134 -15 -47 -45 -106 -45 -89 0 7 93 243 111 282 7 15
14 26 15 24 2 -2 -11 -39 -30 -83z m-626 56 c16 -10 17 -9 -31 -38 -55 -33
-65 -26 -28 22 22 28 35 31 59 16z m743 -22 c28 -38 16 -45 -30 -17 -51 30
-50 29 -33 40 22 14 41 7 63 -23z m-466 16 c-3 -3 -12 -4 -19 -1 -8 3 -5 6 6
6 11 1 17 -2 13 -5z m-415 -49 c-3 -23 0 -35 8 -35 7 0 10 -7 6 -16 -9 -23 5
-145 15 -138 5 3 9 -9 9 -25 0 -35 7 -39 26 -13 12 15 13 14 4 -11 -22 -63 -3
-110 24 -60 14 26 15 27 16 6 0 -15 6 -23 17 -23 9 0 28 10 41 23 21 19 24 19
19 4 -4 -10 -7 -24 -7 -31 0 -8 -20 -12 -60 -11 l-60 0 -25 70 c-14 39 -30 94
-35 124 -12 65 -13 171 -2 171 4 0 6 -16 4 -35z m329 6 c1 -9 1 -19 0 -23 0
-5 4 -8 10 -8 6 0 9 -7 5 -15 -3 -8 -1 -15 4 -15 5 0 17 -12 26 -26 15 -21 15
-27 4 -34 -8 -5 -17 -7 -21 -4 -4 2 -15 -6 -23 -18 -9 -12 -16 -18 -16 -12 0
6 3 14 7 17 11 12 13 68 3 85 -9 16 -9 16 -10 0 0 -10 -4 -18 -9 -18 -5 0 -5
15 -1 35 6 27 5 35 -6 35 -8 0 -14 -5 -14 -12 0 -6 -3 -8 -6 -5 -4 4 -2 13 4
20 7 8 9 16 6 20 -3 3 3 3 15 0 12 -3 22 -13 22 -22z m99 -1 c0 -11 -5 -22
-11 -26 -8 -4 -7 -9 2 -15 11 -7 11 -9 1 -9 -19 0 -26 28 -11 47 10 12 10 15
2 9 -8 -4 -13 -1 -13 8 0 10 6 13 15 10 8 -4 15 -14 15 -24z m540 -32 c0 -73
-20 -175 -47 -236 l-18 -43 -11 47 c-9 37 -9 44 1 31 20 -28 28 -19 22 24 -4
34 -3 38 7 23 11 -15 14 -8 20 48 3 36 4 73 0 82 -4 9 -1 16 6 16 9 0 11 11 7
35 -3 19 -2 35 4 35 5 0 9 -28 9 -62z m-725 -79 c25 -62 43 -114 41 -116 -5
-5 -24 37 -55 122 -16 44 -32 89 -36 100 -5 11 -5 17 -1 14 4 -4 27 -58 51
-120z m-91 98 c17 -13 16 -15 -20 -38 -22 -13 -45 -27 -51 -32 -23 -15 -14 20
13 52 29 35 33 36 58 18z m710 -18 c14 -17 26 -37 26 -46 0 -16 6 -19 -76 34
-25 16 -25 17 -8 30 25 18 29 17 58 -18z m-447 -51 c-3 -8 -6 -5 -6 6 -1 11 2
17 5 13 3 -3 4 -12 1 -19z m-233 -4 c9 -8 14 -20 10 -25 -5 -9 -98 -59 -109
-59 -10 0 6 43 27 73 22 30 49 35 72 11z m664 -11 c21 -30 37 -73 27 -73 -13
0 -104 50 -111 61 -8 14 22 39 47 39 10 0 26 -12 37 -27z m-913 -23 c-9 -16
-17 -30 -19 -30 -3 0 1 14 7 30 6 17 15 30 19 30 5 0 2 -13 -7 -30z m1100 0
c9 -16 13 -30 11 -30 -3 0 -12 14 -21 30 -9 17 -13 30 -11 30 3 0 12 -13 21
-30z m-441 14 c12 -5 13 -11 6 -25 -6 -10 -9 -24 -8 -31 2 -7 -5 -12 -14 -12
-13 1 -18 -6 -18 -25 0 -20 2 -23 10 -11 15 23 12 3 -6 -38 -9 -20 -19 -62
-23 -92 -7 -53 -7 -52 -15 50 -6 75 -5 105 3 108 6 2 11 12 11 22 0 13 5 17
19 13 20 -5 42 18 23 25 -7 2 -12 8 -12 13 0 11 3 11 24 3z m-196 -49 c20 -15
21 -15 16 2 -4 15 -4 15 4 3 5 -8 12 -34 15 -57 4 -40 3 -42 -16 -31 -21 11
-21 10 -4 -15 26 -41 20 -45 -13 -9 -16 18 -27 39 -24 47 4 8 9 13 13 11 4 -3
7 4 7 14 0 10 -4 16 -8 14 -4 -3 -8 0 -8 6 0 6 -4 8 -10 5 -5 -3 -10 1 -10 9
0 20 10 20 38 1z m-183 -14 c3 -6 -14 -19 -38 -29 -25 -11 -48 -25 -51 -31
-10 -16 -26 -13 -26 4 0 27 47 65 79 65 16 0 32 -4 36 -9z m620 -16 c25 -24
33 -55 16 -55 -6 0 -13 5 -17 11 -3 6 -26 19 -51 30 -48 21 -49 39 -2 39 18 0
39 -9 54 -25z m-915 -15 c-7 -4 -9 -14 -5 -21 6 -11 5 -11 -4 -3 -10 10 -10
17 0 35 8 17 14 20 17 10 2 -7 -1 -17 -8 -21z m1130 9 c0 -5 -4 -9 -10 -9 -5
0 -10 7 -10 16 0 8 5 12 10 9 6 -3 10 -10 10 -16z m-1097 -14 c-3 -9 -8 -14
-10 -11 -3 3 -2 9 2 15 9 16 15 13 8 -4z m1065 -10 c-3 -3 -9 2 -12 12 -6 14
-5 15 5 6 7 -7 10 -15 7 -18z m-775 -7 c15 -11 10 -16 -43 -34 -65 -23 -79
-13 -40 26 23 23 58 26 83 8z m557 -8 c39 -39 25 -49 -40 -26 -53 18 -58 23
-43 34 25 18 60 15 83 -8z m284 -6 c3 -8 2 -12 -4 -9 -6 3 -10 10 -10 16 0 14
7 11 14 -7z m-619 -74 c-4 -39 -9 -69 -12 -67 -2 3 -1 37 3 76 3 40 9 70 11
67 3 -3 2 -37 -2 -76z m38 -5 c4 -60 3 -69 -3 -35 -9 46 -13 127 -6 119 2 -2
6 -40 9 -84z m-553 51 c0 -8 -7 -16 -15 -20 -13 -4 -14 -2 -5 14 13 23 20 26
20 6z m1076 -5 c-3 -4 4 -12 15 -19 16 -10 19 -9 20 5 0 13 3 12 10 -6 12 -31
4 -39 -19 -18 -10 10 -24 17 -30 17 -6 0 -10 9 -9 19 0 11 5 17 9 15 5 -3 6
-9 4 -13z m-1128 -26 c-1 -14 -6 -25 -11 -25 -5 0 -6 7 -3 16 3 9 6 20 6 25 0
5 2 9 5 9 3 0 4 -11 3 -25z m409 -7 c-3 -7 -5 -2 -5 12 0 14 2 19 5 13 2 -7 2
-19 0 -25z m350 10 c-3 -8 -6 -5 -6 6 -1 11 2 17 5 13 3 -3 4 -12 1 -19z
m-677 8 c0 -3 -4 -8 -10 -11 -5 -3 -10 -1 -10 4 0 6 5 11 10 11 6 0 10 -2 10
-4z m270 -6 c-20 -13 -43 -13 -35 0 3 6 16 10 28 10 18 0 19 -2 7 -10z m495 0
c8 -13 -15 -13 -35 0 -12 8 -11 10 7 10 12 0 25 -4 28 -10z m-348 -22 c-3 -8
-6 -5 -6 6 -1 11 2 17 5 13 3 -3 4 -12 1 -19z m403 7 c17 -21 50 -19 50 2 0
14 3 13 16 -5 8 -12 20 -20 25 -17 5 4 9 3 9 -2 0 -4 -27 -8 -59 -8 -54 -1
-60 1 -64 22 -5 26 5 30 23 8z m-373 -62 c-2 -16 -4 -5 -4 22 0 28 2 40 4 28
2 -13 2 -35 0 -50z m226 15 c3 -21 2 -38 -4 -38 -5 0 -9 19 -9 42 0 49 5 47
13 -4z m-648 23 c3 -5 1 -12 -5 -16 -5 -3 -10 1 -10 9 0 18 6 21 15 7z m265
-1 c0 -5 -4 -10 -10 -10 -5 0 -10 5 -10 10 0 6 5 10 10 10 6 0 10 -4 10 -10z
m46 -58 c-11 -10 -14 3 -7 38 l6 35 3 -33 c2 -19 1 -36 -2 -40z m394 58 c0 -5
-4 -10 -10 -10 -5 0 -10 5 -10 10 0 6 5 10 10 10 6 0 10 -4 10 -10z m260 -6
c0 -8 -5 -12 -10 -9 -6 4 -8 11 -5 16 9 14 15 11 15 -7z m-747 -8 c4 -10 0
-12 -15 -8 -15 4 -17 7 -6 13 17 11 15 11 21 -5z m547 -1 c0 -1 -9 -5 -20 -8
-12 -3 -20 0 -20 8 0 8 8 11 20 8 11 -3 20 -7 20 -8z m318 -10 c-3 -3 -9 2
-12 12 -6 14 -5 15 5 6 7 -7 10 -15 7 -18z m-802 -22 c-1 -1 -12 0 -25 4 -15
4 -19 8 -10 13 10 7 42 -10 35 -17z m413 6 c-22 -13 -31 -11 -17 5 7 8 17 12
22 9 4 -3 2 -9 -5 -14z m-789 -46 c-11 -17 -11 -17 -6 0 3 10 7 26 7 35 1 15
2 15 6 0 2 -10 -1 -25 -7 -35z m150 27 c-6 -11 -13 -20 -16 -20 -2 0 0 9 6 20
6 11 13 20 16 20 2 0 0 -9 -6 -20z m850 0 c6 -11 8 -20 6 -20 -3 0 -10 9 -16
20 -6 11 -8 20 -6 20 3 0 10 -9 16 -20z m-910 6 c0 -3 -4 -8 -10 -11 -5 -3
-10 -1 -10 4 0 6 5 11 10 11 6 0 10 -2 10 -4z m301 -42 c68 -19 136 -43 151
-52 26 -15 30 -15 56 0 30 18 251 84 311 94 35 6 40 3 68 -33 36 -44 57 -111
47 -148 -8 -31 -43 -50 -130 -71 -132 -30 -150 -51 -140 -162 8 -87 0 -102
-54 -102 -41 0 -120 49 -120 75 0 8 -4 15 -10 15 -5 0 -10 -7 -10 -14 0 -24
-66 -67 -110 -73 -63 -9 -73 6 -65 98 10 113 -6 133 -139 163 -37 9 -80 23
-96 31 -54 28 -49 110 11 186 38 49 39 49 230 -7z m757 1 c-3 -3 -9 2 -12 12
-6 14 -5 15 5 6 7 -7 10 -15 7 -18z m-1086 -130 c-3 -30 0 -51 9 -62 12 -14
12 -16 0 -8 -12 7 -13 -1 -8 -44 4 -29 12 -60 18 -67 8 -10 9 -18 2 -25 -12
-12 -43 100 -43 154 0 30 17 97 25 97 1 0 0 -20 -3 -45z m1038 -43 c0 -49 -31
-175 -41 -165 -4 4 -2 26 6 48 17 49 20 99 4 89 -7 -4 -7 1 1 16 7 13 10 40 7
64 l-6 41 14 -30 c8 -16 14 -45 15 -63z m-923 -141 c49 -98 66 -118 107 -130
l31 -9 -35 -1 c-39 -1 -55 13 -82 70 -10 22 -29 42 -47 50 -22 10 -27 17 -19
26 15 18 1 61 -22 68 -11 3 -20 13 -20 22 0 35 46 -16 87 -96z m873 95 c0 -8
-9 -18 -20 -21 -24 -7 -37 -52 -21 -68 8 -8 3 -14 -19 -23 -18 -8 -37 -28 -47
-51 -26 -54 -48 -73 -85 -72 l-33 1 29 8 c43 13 64 38 101 117 40 86 95 149
95 109z m-1063 -73 c-4 -3 -2 -12 5 -20 8 -10 8 -17 -1 -26 -10 -9 -11 -8 -6
6 4 9 3 17 -3 17 -5 0 -12 7 -16 15 -3 10 1 15 11 15 9 0 13 -3 10 -7z m123
-95 l-1 -33 -14 25 c-18 32 -18 40 0 40 10 0 15 -10 15 -32z m950 25 c-1 -5
-7 -19 -15 -33 l-14 -25 -1 33 c0 22 5 32 15 32 8 0 15 -3 15 -7z m-1010 -53
c0 -5 -4 -10 -9 -10 -6 0 -13 5 -16 10 -3 6 1 10 9 10 9 0 16 -4 16 -10z m306
-26 c-30 -21 -45 -16 -16 6 14 10 27 16 30 13 3 -2 -4 -11 -14 -19z m461 -10
c-8 -8 -47 10 -47 22 0 12 5 11 25 -2 14 -9 24 -18 22 -20z m-655 -34 c48 -62
57 -80 21 -47 -16 15 -40 46 -53 70 -26 47 -20 43 32 -23z m425 43 c2 -6 -10
-13 -27 -15 -29 -4 -29 -4 -13 14 17 19 34 20 40 1z m428 -10 c-19 -31 -91
-117 -79 -93 9 18 87 120 92 120 2 0 -4 -12 -13 -27z m-818 -15 c-3 -7 -5 -2
-5 12 0 14 2 19 5 13 2 -7 2 -19 0 -25z m750 0 c-3 -7 -5 -2 -5 12 0 14 2 19
5 13 2 -7 2 -19 0 -25z m-544 -29 c16 -1 17 -3 5 -6 -22 -6 -60 15 -52 29 4 7
10 5 16 -6 5 -9 19 -17 31 -17z m372 4 c-11 -7 -28 -12 -39 -12 -19 2 -18 2 2
6 13 3 26 11 29 19 3 8 10 11 16 7 6 -4 3 -11 -8 -20z m-471 -4 c8 -12 12 -28
9 -35 -9 -24 -21 -15 -15 11 3 16 -1 27 -11 31 -18 7 -57 -12 -57 -28 0 -22
33 -48 61 -48 15 0 29 -6 32 -12 8 -23 42 7 42 36 -1 14 2 26 6 26 10 0 20
-30 13 -41 -3 -5 2 -9 11 -9 9 0 19 9 22 21 4 12 11 18 20 15 8 -3 27 -6 41
-6 17 0 -6 -12 -58 -30 -46 -17 -97 -30 -113 -30 -33 0 -87 48 -87 77 0 44 58
59 84 22z m206 1 c0 -11 -7 -20 -15 -20 -16 0 -16 20 0 32 14 11 15 10 15 -12z
m135 12 c16 -11 16 -32 1 -32 -7 0 -16 9 -19 20 -5 21 1 25 18 12z m263 -4 c7
-7 12 -18 12 -25 0 -8 -7 -6 -20 7 -23 23 -40 25 -60 8 -12 -11 -12 -10 -1 5
15 20 51 23 69 5z m-441 -14 c-3 -3 -12 -4 -19 -1 -8 3 -5 6 6 6 11 1 17 -2
13 -5z m230 0 c-3 -3 -12 -4 -19 -1 -8 3 -5 6 6 6 11 1 17 -2 13 -5z m-87 -24
c18 -6 7 -8 -40 -8 -47 0 -58 2 -40 8 14 4 32 8 40 8 8 0 26 -4 40 -8z m163
-10 c-3 -11 0 -27 7 -35 14 -17 45 -21 35 -5 -4 6 7 10 26 10 18 0 41 8 52 18
19 16 20 16 8 -5 -27 -51 -77 -54 -196 -9 -48 17 -61 26 -43 26 14 0 33 3 41
6 9 3 16 -3 20 -15 3 -12 13 -21 22 -21 9 0 13 5 10 10 -8 13 1 40 14 40 5 0
7 -9 4 -20z m73 -7 c-7 -7 -26 7 -26 19 0 6 6 6 15 -2 9 -7 13 -15 11 -17z
m-246 -78 c-7 -9 -27 -15 -44 -15 -17 0 -48 -2 -69 -3 -21 -2 -41 1 -44 6 -3
6 -1 7 5 3 7 -4 12 -2 12 4 0 7 12 9 35 4 23 -4 35 -2 35 5 0 6 18 11 41 11
36 0 40 -2 29 -15z m50 -7 c0 6 7 12 15 12 8 0 15 -5 15 -11 0 -5 6 -7 13 -3
6 4 9 3 4 -1 -9 -11 -46 -15 -71 -8 -15 4 -16 7 -5 14 8 5 16 3 21 -4 6 -9 8
-9 8 1z"/>
<path d="M521 4939 c-16 -13 -18 -19 -8 -19 15 0 43 27 36 34 -2 3 -15 -4 -28
-15z"/>
<path d="M459 4871 c8 -5 11 -16 7 -27 -6 -16 -7 -16 -20 1 -12 16 -13 16 -19
1 -7 -19 14 -32 38 -22 22 8 20 56 -2 56 -15 0 -15 -2 -4 -9z"/>
<path d="M382 4776 c7 -8 16 -12 21 -9 12 7 8 -32 -5 -45 -19 -19 -27 -14 -22
14 3 18 1 25 -8 21 -7 -2 -12 -11 -12 -20 1 -9 -4 -13 -12 -10 -22 8 -16 -15
6 -27 14 -8 26 -8 40 0 47 25 50 90 4 90 -21 0 -23 -2 -12 -14z"/>
<path d="M284 4599 c-8 -14 11 -33 25 -25 6 4 11 11 11 16 0 13 -29 20 -36 9z"/>
<path d="M253 4532 c-13 -2 -23 -6 -23 -10 0 -16 39 -30 63 -24 l25 7 -22 15
c-11 9 -31 14 -43 12z"/>
<path d="M250 4440 c0 -5 5 -10 11 -10 5 0 7 5 4 10 -3 6 -8 10 -11 10 -2 0
-4 -4 -4 -10z"/>
<path d="M195 4420 c-12 -20 12 -35 31 -19 15 12 19 11 32 -9 15 -22 42 -30
42 -12 0 6 -4 10 -10 10 -5 0 -7 7 -4 15 4 9 0 15 -9 15 -8 0 -28 3 -45 6 -18
4 -32 1 -37 -6z"/>
<path d="M220 4270 c0 -5 5 -10 10 -10 6 0 10 5 10 10 0 6 -4 10 -10 10 -5 0
-10 -4 -10 -10z"/>
<path d="M230 4059 c0 -11 5 -17 10 -14 6 3 10 13 10 21 0 8 -4 14 -10 14 -5
0 -10 -9 -10 -21z"/>
<path d="M264 3934 c-9 -14 -23 -23 -30 -20 -8 3 -14 -1 -14 -9 0 -17 26 -20
35 -5 4 6 16 8 27 4 18 -5 20 -3 15 15 -7 29 7 26 32 -5 22 -28 28 -69 11 -79
-5 -3 -10 1 -10 9 0 9 -7 16 -16 16 -11 0 -15 -6 -11 -20 3 -13 0 -20 -9 -20
-8 0 -14 -8 -14 -17 0 -13 3 -14 12 -5 7 7 22 12 35 12 52 0 46 95 -8 134 -31
21 -36 20 -55 -10z"/>
<path d="M260 3865 c0 -8 7 -15 15 -15 8 0 15 7 15 15 0 8 -7 15 -15 15 -8 0
-15 -7 -15 -15z"/>
<path d="M390 3705 c0 -8 7 -15 15 -15 8 0 15 7 15 15 0 8 -7 15 -15 15 -8 0
-15 -7 -15 -15z"/>
<path d="M515 3620 c-4 -6 10 -10 34 -10 39 0 47 -4 76 -45 13 -18 14 -18 15
-2 0 31 -45 67 -84 67 -19 0 -38 -4 -41 -10z"/>
<path d="M4550 4952 c0 -13 27 -35 39 -30 5 1 -2 11 -15 21 -13 10 -24 14 -24
9z"/>
<path d="M4622 4853 c4 -36 48 -48 45 -13 -1 20 -2 20 -14 4 -12 -16 -13 -16
-19 0 -4 11 -1 22 7 27 11 7 10 9 -4 9 -14 0 -18 -6 -15 -27z"/>
<path d="M4675 4770 c-13 -42 38 -90 75 -70 22 12 28 35 6 27 -8 -3 -13 1 -12
10 0 9 -5 18 -12 20 -7 3 -13 -1 -11 -8 4 -34 0 -42 -16 -29 -8 7 -15 17 -15
22 0 14 27 38 34 31 3 -4 6 -1 6 5 0 21 -48 14 -55 -8z"/>
<path d="M4793 4603 c-18 -6 -16 -33 1 -33 19 0 31 19 20 30 -5 4 -15 5 -21 3z"/>
<path d="M4802 4519 l-21 -17 26 -5 c25 -5 63 10 63 24 0 16 -49 14 -68 -2z"/>
<path d="M4860 4270 c0 -5 5 -10 10 -10 6 0 10 5 10 10 0 6 -4 10 -10 10 -5 0
-10 -4 -10 -10z"/>
<path d="M4781 3944 c-54 -39 -60 -134 -8 -134 13 0 28 -5 35 -12 9 -9 12 -8
12 5 0 9 -6 17 -14 17 -9 0 -12 7 -9 20 4 15 0 20 -16 20 -15 0 -19 -4 -14
-17 4 -11 3 -14 -5 -9 -19 11 -14 51 9 80 25 31 39 34 32 5 -5 -18 -3 -20 15
-15 11 4 23 2 27 -4 9 -15 35 -12 35 5 0 8 -6 12 -14 9 -7 -3 -21 6 -30 20
-19 30 -24 31 -55 10z"/>
<path d="M4810 3865 c0 -8 7 -15 15 -15 8 0 15 7 15 15 0 8 -7 15 -15 15 -8 0
-15 -7 -15 -15z"/>
<path d="M4678 3764 c-34 -18 -48 -43 -48 -83 0 -33 19 -41 39 -17 13 16 -2
32 -19 21 -18 -11 -11 22 11 49 22 28 63 37 53 11 -4 -10 0 -15 15 -15 23 0
28 19 9 38 -15 15 -27 15 -60 -4z"/>
<path d="M4680 3705 c0 -8 7 -15 15 -15 8 0 15 7 15 15 0 8 -7 15 -15 15 -8 0
-15 -7 -15 -15z"/>
<path d="M4486 3609 c-14 -11 -26 -30 -26 -42 1 -22 1 -22 15 -2 29 41 37 45
76 45 24 0 38 4 34 10 -11 17 -71 11 -99 -11z"/>
<path d="M2450 3726 c0 -9 5 -16 10 -16 6 0 10 4 10 9 0 6 -4 13 -10 16 -5 3
-10 -1 -10 -9z"/>
<path d="M2636 3731 c-4 -7 -5 -15 -2 -18 9 -9 19 4 14 18 -4 11 -6 11 -12 0z"/>
<path d="M2522 3518 c-19 -19 -14 -73 8 -93 19 -17 21 -17 40 0 36 32 22 105
-20 105 -9 0 -21 -5 -28 -12z"/>
<path d="M2344 3589 c-3 -6 -1 -16 5 -22 9 -9 14 -8 21 3 9 15 4 30 -10 30 -5
0 -12 -5 -16 -11z"/>
<path d="M2725 3590 c-11 -17 5 -32 21 -19 7 6 11 15 8 20 -7 12 -21 11 -29
-1z"/>
<path d="M2049 3453 c-8 -9 -9 -14 -2 -10 6 4 14 1 16 -5 3 -7 6 -3 6 10 1 26
-2 27 -20 5z"/>
<path d="M3030 3461 c0 -5 7 -12 16 -15 14 -5 15 -4 4 9 -14 17 -20 19 -20 6z"/>
<path d="M610 3186 c0 -9 5 -16 10 -16 6 0 10 4 10 9 0 6 -4 13 -10 16 -5 3
-10 -1 -10 -9z"/>
<path d="M4476 3191 c-4 -7 -5 -15 -2 -18 9 -9 19 4 14 18 -4 11 -6 11 -12 0z"/>
<path d="M4317 3083 c-3 -5 -2 -15 2 -22 7 -10 10 -10 16 -1 4 6 3 16 -3 22
-5 5 -12 6 -15 1z"/>
<path d="M760 3076 c0 -8 5 -18 10 -21 6 -3 10 3 10 14 0 12 -4 21 -10 21 -5
0 -10 -6 -10 -14z"/>
<path d="M2448 3123 c7 -3 16 -2 19 1 4 3 -2 6 -13 5 -11 0 -14 -3 -6 -6z"/>
<path d="M4215 3010 c-4 -6 -3 -16 3 -22 6 -6 12 -6 17 2 4 6 3 16 -3 22 -6 6
-12 6 -17 -2z"/>
<path d="M865 3010 c-4 -6 -3 -16 3 -22 6 -6 12 -6 17 2 4 6 3 16 -3 22 -6 6
-12 6 -17 -2z"/>
<path d="M1080 2925 c0 -8 7 -15 15 -15 8 0 15 7 15 15 0 8 -7 15 -15 15 -8 0
-15 -7 -15 -15z"/>
<path d="M3990 2925 c0 -8 7 -15 15 -15 8 0 15 7 15 15 0 8 -7 15 -15 15 -8 0
-15 -7 -15 -15z"/>
<path d="M2920 2977 c0 -8 7 -21 16 -28 14 -11 15 -10 12 11 -3 26 -28 41 -28
17z"/>
<path d="M1750 2744 c0 -9 -5 -12 -12 -8 -9 5 -9 2 1 -9 16 -20 22 -22 19 -4
-2 6 3 11 11 9 12 -3 12 0 1 12 -16 20 -20 20 -20 0z"/>
<path d="M1737 2699 c7 -7 15 -10 18 -7 3 3 -2 9 -12 12 -14 6 -15 5 -6 -5z"/>
<path d="M3321 2736 c-12 -14 -14 -29 -9 -69 1 -16 3 -16 20 0 21 19 25 31 5
14 -11 -9 -14 -5 -15 20 -1 27 1 29 16 17 15 -11 15 -11 5 3 -7 9 -10 19 -6
22 3 4 4 7 1 7 -3 0 -11 -6 -17 -14z"/>
<path d="M3285 2670 c3 -5 8 -10 11 -10 2 0 4 5 4 10 0 6 -5 10 -11 10 -5 0
-7 -4 -4 -10z"/>
<path d="M2255 2230 c3 -5 11 -10 16 -10 6 0 7 5 4 10 -3 6 -11 10 -16 10 -6
0 -7 -4 -4 -10z"/>
<path d="M2413 2015 c0 -8 4 -15 9 -15 4 0 8 4 8 9 0 6 -4 12 -8 15 -5 3 -9
-1 -9 -9z"/>
<path d="M2440 1894 c0 -6 7 -19 15 -30 8 -10 14 -14 14 -9 0 6 -6 19 -14 29
-8 11 -15 15 -15 10z"/>
<path d="M2435 1770 c3 -5 8 -10 11 -10 2 0 4 5 4 10 0 6 -5 10 -11 10 -5 0
-7 -4 -4 -10z"/>
<path d="M2366 1645 c-3 -8 -1 -15 4 -15 6 0 10 7 10 15 0 8 -2 15 -4 15 -2 0
-6 -7 -10 -15z"/>
<path d="M2416 1432 c-3 -5 1 -9 9 -9 8 0 15 4 15 9 0 4 -4 8 -9 8 -6 0 -12
-4 -15 -8z"/>
<path d="M2612 1290 c-7 -11 -12 -25 -12 -32 0 -7 7 0 15 16 18 33 15 45 -3
16z"/>
<path d="M2181 1141 c-10 -6 -12 -20 -7 -47 19 -106 19 -124 1 -131 -10 -3
-25 -2 -34 4 -18 12 -28 53 -12 53 6 0 11 -9 11 -19 0 -24 29 -36 36 -16 4 8
-1 26 -9 39 -9 13 -13 33 -10 45 11 41 -22 21 -41 -26 -17 -41 -18 -49 -5 -72
19 -34 52 -38 79 -9 13 13 24 19 26 13 10 -24 23 -39 30 -32 4 4 2 18 -4 32
-12 25 -12 25 13 9 40 -26 44 -6 5 27 -34 30 -35 30 -5 16 17 -9 41 -27 54
-41 27 -29 43 -34 34 -11 -4 12 8 10 53 -10 76 -33 106 -55 123 -90 12 -25 12
-32 0 -54 -29 -52 -119 -34 -119 23 0 44 43 61 73 28 23 -25 10 -35 -19 -16
-13 9 -28 13 -34 9 -18 -11 -11 -34 15 -51 21 -14 31 -15 51 -5 22 10 25 16
20 39 -8 33 -50 72 -78 72 -11 0 -27 8 -34 18 -13 16 -15 16 -24 0 -9 -14 -13
-15 -38 -3 -26 13 -72 11 -72 -4 0 -3 22 -16 49 -29 39 -17 53 -31 69 -66 22
-46 65 -73 102 -63 11 3 18 1 14 -4 -7 -13 -68 -11 -81 2 -13 13 -33 4 -33
-17 0 -10 14 -14 58 -14 51 -1 55 -2 38 -15 -13 -10 -25 -11 -43 -4 -33 12
-43 11 -43 -5 0 -8 10 -17 23 -19 21 -4 21 -4 1 -6 -12 0 -27 -8 -34 -16 -11
-13 -6 -15 40 -15 44 0 56 4 81 29 16 16 32 43 35 60 4 17 10 31 14 31 4 0 10
-14 14 -31 3 -17 19 -44 35 -60 25 -25 37 -29 81 -29 45 0 51 2 40 14 -6 8
-21 17 -33 19 -22 4 -22 4 1 6 12 0 22 8 22 16 0 17 -9 19 -43 6 -18 -7 -30
-6 -43 4 -17 13 -14 14 33 15 53 0 74 13 54 33 -8 8 -14 8 -23 -1 -14 -14 -74
-16 -82 -4 -3 5 7 7 22 4 34 -5 76 26 98 73 11 25 31 41 67 58 48 23 49 25 28
36 -17 10 -28 9 -52 -3 -26 -13 -31 -13 -36 0 -7 19 -33 18 -33 -1 0 -9 -9
-15 -24 -15 -32 0 -73 -37 -82 -72 -5 -23 -2 -29 20 -39 20 -10 30 -9 51 5 14
9 25 23 25 32 0 22 -28 29 -49 10 -23 -21 -36 -8 -14 16 29 33 73 16 73 -27 0
-58 -91 -75 -120 -22 -27 48 12 93 124 142 45 20 57 22 53 10 -9 -23 7 -18 34
11 13 14 38 33 54 41 29 15 29 14 -5 -15 -39 -34 -36 -53 5 -26 l26 17 -12
-27 c-13 -28 -4 -50 11 -26 5 8 11 19 13 24 2 6 13 0 26 -13 28 -28 61 -24 80
10 13 23 12 31 -5 72 -20 50 -51 67 -40 22 4 -14 2 -25 -3 -25 -11 0 -24 -47
-16 -60 9 -15 35 1 35 21 0 10 5 19 11 19 16 0 6 -41 -12 -53 -9 -6 -24 -7
-34 -3 -18 7 -18 22 1 138 5 30 3 37 -14 42 -41 13 -79 -27 -47 -50 15 -11 14
-14 -7 -28 -14 -9 -56 -27 -94 -40 -39 -13 -84 -31 -100 -39 -37 -19 -104 -91
-104 -112 0 -8 -4 -15 -10 -15 -5 0 -10 7 -10 15 0 22 -68 94 -109 114 -20 10
-66 28 -103 40 -37 13 -78 31 -90 41 -21 17 -21 19 -5 25 21 9 22 19 1 39 -17
18 -32 20 -53 7z"/>
<path d="M2537 924 c-8 -8 1 -24 14 -24 5 0 9 7 9 15 0 15 -12 20 -23 9z"/>
</g>
</svg>
